<svg width="185" height="30" viewBox="0 0 185 30" fill="none" xmlns="http://www.w3.org/2000/svg">
<path d="M4.98379 22.6285C4.24845 22.6285 3.57117 22.4447 2.95194 22.077C2.35205 21.7094 1.86828 21.2256 1.50061 20.6257C1.15229 20.0258 0.97813 19.3582 0.97813 18.6229V12.2951H14.2723V9.94394C14.2723 9.84718 14.2336 9.76978 14.1562 9.71173C14.0981 9.63432 14.0207 9.59562 13.924 9.59562H0.97813V5.79314H14.0691C14.8044 5.79314 15.4721 5.97698 16.0719 6.34465C16.6912 6.71232 17.1749 7.19609 17.5233 7.79597C17.8909 8.39586 18.0748 9.06347 18.0748 9.79881V22.6285H4.98379ZM5.12893 18.8261H14.2723V15.7202H4.78061V18.4777C4.78061 18.5745 4.80963 18.6616 4.86769 18.739C4.94509 18.797 5.03217 18.8261 5.12893 18.8261ZM24.8767 22.6285C24.122 22.6285 23.4448 22.4447 22.8449 22.077C22.245 21.7094 21.7612 21.2256 21.3935 20.6257C21.0452 20.0258 20.8711 19.3582 20.8711 18.6229V9.79881C20.8711 9.06347 21.0452 8.39586 21.3935 7.79597C21.7612 7.19609 22.245 6.71232 22.8449 6.34465C23.4448 5.97698 24.122 5.79314 24.8767 5.79314H34.1943V0.278098H37.9967V22.6285H24.8767ZM25.0509 18.8261H33.8459C33.9427 18.8261 34.0201 18.797 34.0781 18.739C34.1555 18.6616 34.1943 18.5745 34.1943 18.4777V9.94394C34.1943 9.84718 34.1555 9.76978 34.0781 9.71173C34.0201 9.63432 33.9427 9.59562 33.8459 9.59562H25.0509C24.9541 9.59562 24.8671 9.63432 24.7896 9.71173C24.7316 9.76978 24.7026 9.84718 24.7026 9.94394V18.4777C24.7026 18.5745 24.7316 18.6616 24.7896 18.739C24.8671 18.797 24.9541 18.8261 25.0509 18.8261ZM44.1501 29.2756V25.4441H54.2804C54.3772 25.4441 54.4546 25.4054 54.5126 25.328C54.59 25.27 54.6287 25.1926 54.6287 25.0958V22.6285H45.3402C44.6242 22.6285 43.9566 22.4447 43.3374 22.077C42.7375 21.7094 42.2537 21.2256 41.8861 20.6257C41.5184 20.0258 41.3346 19.3582 41.3346 18.6229V9.79881C41.3346 9.06347 41.5184 8.39586 41.8861 7.79597C42.2537 7.19609 42.7375 6.71232 43.3374 6.34465C43.9566 5.97698 44.6242 5.79314 45.3402 5.79314H54.4546C55.1899 5.79314 55.8575 5.97698 56.4574 6.34465C57.0573 6.71232 57.5314 7.19609 57.8797 7.79597C58.2474 8.39586 58.4312 9.06347 58.4312 9.79881V25.27C58.4312 26.0246 58.257 26.7019 57.9087 27.3018C57.5604 27.9017 57.0766 28.3758 56.4574 28.7241C55.8575 29.0918 55.1899 29.2756 54.4546 29.2756H44.1501ZM45.4854 18.8261H54.2804C54.3772 18.8261 54.4546 18.797 54.5126 18.739C54.59 18.6616 54.6287 18.5745 54.6287 18.4777V9.94394C54.6287 9.84718 54.59 9.76978 54.5126 9.71173C54.4546 9.63432 54.3772 9.59562 54.2804 9.59562H45.4854C45.3886 9.59562 45.3015 9.63432 45.2241 9.71173C45.1661 9.76978 45.137 9.84718 45.137 9.94394V18.4777C45.137 18.5745 45.1661 18.6616 45.2241 18.739C45.3015 18.797 45.3886 18.8261 45.4854 18.8261ZM65.4298 22.6285C64.6944 22.6285 64.0268 22.4447 63.4269 22.077C62.827 21.7094 62.3433 21.2256 61.9756 20.6257C61.6079 20.0258 61.4241 19.3582 61.4241 18.6229V9.79881C61.4241 9.06347 61.6079 8.39586 61.9756 7.79597C62.3433 7.19609 62.827 6.71232 63.4269 6.34465C64.0268 5.97698 64.6944 5.79314 65.4298 5.79314H74.5151C75.2504 5.79314 75.918 5.97698 76.5179 6.34465C77.1371 6.71232 77.6209 7.19609 77.9692 7.79597C78.3369 8.39586 78.5207 9.06347 78.5207 9.79881V16.1266H65.2266V18.4777C65.2266 18.5745 65.2556 18.6616 65.3137 18.739C65.3911 18.797 65.4781 18.8261 65.5749 18.8261H78.5207V22.6285H65.4298ZM65.2266 12.7015H74.7183V9.94394C74.7183 9.84718 74.6796 9.76978 74.6022 9.71173C74.5441 9.63432 74.4667 9.59562 74.3699 9.59562H65.5749C65.4781 9.59562 65.3911 9.63432 65.3137 9.71173C65.2556 9.76978 65.2266 9.84718 65.2266 9.94394V12.7015ZM86.1658 22.6285C85.4305 22.6285 84.7629 22.4447 84.163 22.077C83.5631 21.7094 83.0793 21.2256 82.7117 20.6257C82.344 20.0258 82.1602 19.3582 82.1602 18.6229V0.626417H85.9626V5.79314H92.5226V9.59562H85.9626V18.4777C85.9626 18.5745 85.9917 18.6616 86.0497 18.739C86.1271 18.797 86.2142 18.8261 86.311 18.8261H92.5226V22.6285H86.1658ZM100.04 22.6285C99.3047 22.6285 98.6274 22.4447 98.0082 22.077C97.4083 21.7094 96.9246 21.2256 96.5569 20.6257C96.2086 20.0258 96.0344 19.3582 96.0344 18.6229V12.2951H109.329V9.94394C109.329 9.84718 109.29 9.76978 109.212 9.71173C109.154 9.63432 109.077 9.59562 108.98 9.59562H96.0344V5.79314H109.125C109.861 5.79314 110.528 5.97698 111.128 6.34465C111.747 6.71232 112.231 7.19609 112.58 7.79597C112.947 8.39586 113.131 9.06347 113.131 9.79881V22.6285H100.04ZM100.185 18.8261H109.329V15.7202H99.8369V18.4777C99.8369 18.5745 99.8659 18.6616 99.924 18.739C100.001 18.797 100.088 18.8261 100.185 18.8261ZM116.174 22.6285V9.79881C116.174 9.06347 116.358 8.39586 116.725 7.79597C117.093 7.19609 117.577 6.71232 118.177 6.34465C118.796 5.97698 119.464 5.79314 120.179 5.79314H129.526V9.59562H120.325C120.228 9.59562 120.141 9.63432 120.063 9.71173C120.005 9.76978 119.976 9.84718 119.976 9.94394V22.6285H116.174ZM132.316 22.6285V5.79314H136.119V22.6285H132.316ZM132.316 4.1096V0.278098H136.119V4.1096H132.316ZM143.366 22.6285C142.631 22.6285 141.954 22.4447 141.334 22.077C140.735 21.7094 140.251 21.2256 139.883 20.6257C139.535 20.0258 139.361 19.3582 139.361 18.6229V5.79314H143.163V18.4777C143.163 18.5745 143.192 18.6616 143.25 18.739C143.328 18.797 143.415 18.8261 143.511 18.8261H152.306C152.403 18.8261 152.481 18.797 152.539 18.739C152.616 18.6616 152.655 18.5745 152.655 18.4777V5.79314H156.457V18.6229C156.457 19.3582 156.273 20.0258 155.906 20.6257C155.557 21.2256 155.083 21.7094 154.483 22.077C153.884 22.4447 153.206 22.6285 152.452 22.6285H143.366ZM159.444 22.6285V5.79314H180.314C181.069 5.79314 181.746 5.97698 182.346 6.34465C182.946 6.71232 183.42 7.19609 183.768 7.79597C184.136 8.39586 184.32 9.06347 184.32 9.79881V22.6285H180.546V9.94394C180.546 9.84718 180.508 9.76978 180.43 9.71173C180.353 9.63432 180.266 9.59562 180.169 9.59562H174.16C174.064 9.59562 173.977 9.63432 173.899 9.71173C173.841 9.76978 173.812 9.84718 173.812 9.94394V22.6285H169.981V9.94394C169.981 9.84718 169.942 9.76978 169.865 9.71173C169.806 9.63432 169.729 9.59562 169.632 9.59562H163.595C163.498 9.59562 163.411 9.63432 163.334 9.71173C163.276 9.76978 163.246 9.84718 163.246 9.94394V22.6285H159.444Z" fill="white"/>
</svg>
