<svg width="18" height="18" viewBox="0 0 18 18" fill="none" xmlns="http://www.w3.org/2000/svg">
<path d="M13.1666 2.49998H16.5C16.721 2.49998 16.9329 2.58778 17.0892 2.74406C17.2455 2.90034 17.3333 3.1123 17.3333 3.33331V16.6666C17.3333 16.8877 17.2455 17.0996 17.0892 17.2559C16.9329 17.4122 16.721 17.5 16.5 17.5H1.49996C1.27895 17.5 1.06698 17.4122 0.910704 17.2559C0.754423 17.0996 0.666626 16.8877 0.666626 16.6666V3.33331C0.666626 3.1123 0.754423 2.90034 0.910704 2.74406C1.06698 2.58778 1.27895 2.49998 1.49996 2.49998H4.83329V1.66665C4.83329 1.20641 5.20639 0.833313 5.66663 0.833313C6.12686 0.833313 6.49996 1.20641 6.49996 1.66665V2.49998H11.5V1.66665C11.5 1.20641 11.8731 0.833313 12.3333 0.833313C12.7935 0.833313 13.1666 1.20641 13.1666 1.66665V2.49998ZM11.5 4.16665H6.49996V4.99998C6.49996 5.46022 6.12686 5.83331 5.66663 5.83331C5.20639 5.83331 4.83329 5.46022 4.83329 4.99998V4.16665H2.33329V7.49998H15.6666V4.16665H13.1666V4.99998C13.1666 5.46022 12.7935 5.83331 12.3333 5.83331C11.8731 5.83331 11.5 5.46022 11.5 4.99998V4.16665ZM15.6666 9.16665H2.33329V15.8333H15.6666V9.16665Z" fill="#91969E"/>
</svg>
