<svg width="16" height="16" viewBox="0 0 16 16" fill="none" xmlns="http://www.w3.org/2000/svg">
<path d="M11.6959 5.57572L9.27194 7.99992L11.6959 10.424C12.0564 10.7847 12.0564 11.369 11.6959 11.7297C11.5157 11.9098 11.2796 12 11.0435 12C10.807 12 10.5708 11.91 10.3908 11.7297L7.96632 9.30529L5.54202 11.7296C5.3619 11.9098 5.12569 11.9999 4.88941 11.9999C4.6532 11.9999 4.41715 11.9099 4.23686 11.7296C3.87631 11.3691 3.87631 10.7848 4.23686 10.424L6.66074 7.9999L4.23672 5.57572C3.87617 5.21516 3.87617 4.63076 4.23672 4.27021C4.5972 3.90993 5.18126 3.90993 5.54188 4.27021L7.9663 6.69442L10.3905 4.27021C10.7512 3.90993 11.3353 3.90993 11.6958 4.27021C12.0564 4.63076 12.0564 5.21516 11.6959 5.57572Z" fill="#909CB5"/>
</svg>

