<svg width="18" height="18" viewBox="0 0 18 18" fill="none" xmlns="http://www.w3.org/2000/svg">
<rect x="0.5625" y="0.5625" width="16.875" height="16.8751" rx="8.4375" stroke="#909CB5" stroke-opacity="0.3" stroke-width="1.125"/>
<path d="M13.1579 6.27268L10.431 8.99991L13.1579 11.727C13.5636 12.1328 13.5636 12.7901 13.1579 13.1959C12.9553 13.3985 12.6896 13.5 12.424 13.5C12.158 13.5 11.8922 13.3987 11.6897 13.1959L8.96217 10.4685L6.23484 13.1958C6.03219 13.3985 5.76646 13.4999 5.50064 13.4999C5.23491 13.4999 4.96935 13.3987 4.76653 13.1958C4.36091 12.7903 4.36091 12.1329 4.76653 11.727L7.4934 8.99989L4.76637 6.27268C4.36075 5.86706 4.36075 5.2096 4.76637 4.80398C5.17192 4.39867 5.82898 4.39867 6.23468 4.80398L8.96214 7.53122L11.6894 4.80398C12.0952 4.39867 12.7523 4.39867 13.1578 4.80398C13.5636 5.2096 13.5636 5.86706 13.1579 6.27268Z" fill="#909CB5"/>
</svg>
