<svg width="16" height="18" viewBox="0 0 16 18" fill="none" xmlns="http://www.w3.org/2000/svg">
<path d="M8.83333 9.00002H11.3333L8 12.3334L4.66667 9.00002H7.16667V6.50002C7.16667 6.03978 7.53976 5.66669 8 5.66669C8.46024 5.66669 8.83333 6.03978 8.83333 6.50002V9.00002ZM10.5 2.33335H2.16667V15.6667H13.8333V5.66669H10.5V2.33335ZM0.5 1.49335C0.5 1.03669 0.8725 0.666687 1.3325 0.666687H11.3333L15.5 4.83335V16.4942C15.5008 16.6036 15.48 16.7121 15.4388 16.8135C15.3976 16.9149 15.3369 17.0072 15.2601 17.0852C15.1832 17.1631 15.0918 17.2251 14.991 17.2677C14.8902 17.3103 14.7819 17.3326 14.6725 17.3334H1.3275C1.10865 17.3318 0.899181 17.2443 0.744348 17.0896C0.589515 16.9349 0.501746 16.7255 0.5 16.5067V1.49335Z" fill="#91969E"/>
</svg>
