<svg width="64" height="45" viewBox="0 0 64 45" fill="none" xmlns="http://www.w3.org/2000/svg">
<rect x="0.5" y="0.5" width="63" height="44" rx="3.5" stroke="#909CB5"/>
<path fill-rule="evenodd" clip-rule="evenodd" d="M32.7046 14.2564C33.8299 13.1307 35.3564 12.4982 36.9482 12.4982C38.5399 12.4982 40.0664 13.1306 41.1916 14.2564C42.3174 15.3816 42.95 16.9083 42.95 18.5C42.95 20.0917 42.3175 21.6183 41.1917 22.7435C41.1917 22.7436 41.1917 22.7435 41.1917 22.7435L32.3517 31.5835C32.1565 31.7788 31.8399 31.7788 31.6446 31.5835L22.8046 22.7435C20.461 20.3999 20.461 16.6001 22.8046 14.2564C25.1483 11.9128 28.9481 11.9128 31.2917 14.2564L31.9982 14.9629L32.7046 14.2564C32.7046 14.2564 32.7046 14.2565 32.7046 14.2564ZM36.9482 13.4982C35.6217 13.4982 34.3496 14.0253 33.4118 14.9635L32.3517 16.0235C32.258 16.1173 32.1308 16.17 31.9982 16.17C31.8656 16.17 31.7384 16.1173 31.6446 16.0235L30.5846 14.9635C28.6315 13.0104 25.4648 13.0104 23.5117 14.9635C21.5586 16.9167 21.5586 20.0833 23.5117 22.0364L31.9982 30.5229L40.4846 22.0364C41.4228 21.0987 41.95 19.8265 41.95 18.5C41.95 17.1735 41.4229 15.9014 40.4847 14.9636C39.5469 14.0254 38.2747 13.4982 36.9482 13.4982Z" fill="#909CB5"/>
<path d="M32.7046 14.2564C33.8299 13.1307 35.3564 12.4982 36.9482 12.4982C38.5399 12.4982 40.0664 13.1306 41.1916 14.2564M32.7046 14.2564L31.9982 14.9629L31.2917 14.2564C28.9481 11.9128 25.1483 11.9128 22.8046 14.2564C20.461 16.6001 20.461 20.3999 22.8046 22.7435L31.6446 31.5835C31.8399 31.7788 32.1565 31.7788 32.3517 31.5835L41.1917 22.7435M32.7046 14.2564C32.7046 14.2565 32.7046 14.2564 32.7046 14.2564ZM41.1916 14.2564C41.1916 14.2563 41.1917 14.2564 41.1916 14.2564ZM41.1916 14.2564C42.3174 15.3816 42.95 16.9083 42.95 18.5C42.95 20.0917 42.3175 21.6183 41.1917 22.7435M41.1917 22.7435C41.1917 22.7435 41.1917 22.7436 41.1917 22.7435ZM33.4118 14.9635C34.3496 14.0253 35.6217 13.4982 36.9482 13.4982C38.2747 13.4982 39.5469 14.0254 40.4847 14.9636C41.4229 15.9014 41.95 17.1735 41.95 18.5C41.95 19.8265 41.4228 21.0987 40.4846 22.0364L31.9982 30.5229L23.5117 22.0364C21.5586 20.0833 21.5586 16.9167 23.5117 14.9635C25.4648 13.0104 28.6315 13.0104 30.5846 14.9635L31.6446 16.0235C31.7384 16.1173 31.8656 16.17 31.9982 16.17C32.1308 16.17 32.258 16.1173 32.3517 16.0235L33.4118 14.9635Z" stroke="#909CB5" stroke-linecap="round" stroke-linejoin="round"/>
</svg>
