<svg width="33" height="41" viewBox="0 0 33 41" fill="none" xmlns="http://www.w3.org/2000/svg">
<rect y="0.362549" width="32.292" height="36.646" fill="#CB11AB"/>
<path d="M16.3602 33.3592C14.6839 33.3592 13.1056 33.0544 11.6253 32.4449C10.1667 31.8353 8.89315 30.9972 7.80465 29.9304C6.71616 28.8419 5.85624 27.5793 5.22492 26.1425C4.61536 24.6839 4.31058 23.1165 4.31058 21.4402C4.31058 19.7639 4.62624 18.2073 5.25757 16.7705C5.8889 15.3337 6.7597 14.0819 7.86996 13.0152C9.002 11.9267 10.3191 11.0886 11.8212 10.5008C13.3233 9.89124 14.9343 9.58646 16.6541 9.58646C18.6352 9.58646 20.4312 9.94566 22.0422 10.6641C23.6749 11.3825 25.0247 12.373 26.0914 13.6357L22.5973 17.1297C21.8571 16.1719 20.9863 15.4535 19.9849 14.9745C18.9835 14.4956 17.8515 14.2561 16.5888 14.2561C15.2391 14.2561 14.0308 14.5609 12.9641 15.1704C11.8974 15.7582 11.0593 16.5964 10.4497 17.6849C9.86191 18.7516 9.56801 20.0034 9.56801 21.4402C9.56801 22.877 9.86191 24.1396 10.4497 25.2281C11.0375 26.3166 11.843 27.1657 12.8662 27.7752C13.8893 28.3848 15.0649 28.6896 16.3929 28.6896C17.7426 28.6896 18.8855 28.4392 19.8216 27.9385C20.7795 27.416 21.5088 26.6758 22.0095 25.718C22.532 24.7383 22.7932 23.5519 22.7932 22.1586L26.1893 24.4444L15.9031 24.2812V19.9381H28.018V20.6891C28.018 23.4539 27.5173 25.7833 26.5159 27.6773C25.5362 29.5495 24.1647 30.9645 22.4014 31.9224C20.6598 32.8803 18.6461 33.3592 16.3602 33.3592Z" fill="white"/>
</svg>
