<svg width="30" height="30" viewBox="0 0 30 30" fill="none" xmlns="http://www.w3.org/2000/svg">
<g clip-path="url(#clip0_1294_16194)">
<path d="M25.25 18.75C25.8023 18.75 26.25 19.1977 26.25 19.75V22.5H29C29.5523 22.5 30 22.9477 30 23.5V24C30 24.5523 29.5523 25 29 25H26.25V27.75C26.25 28.3023 25.8023 28.75 25.25 28.75H24.75C24.1977 28.75 23.75 28.3023 23.75 27.75V25H21C20.4477 25 20 24.5523 20 24V23.5C20 22.9477 20.4477 22.5 21 22.5H23.75V19.75C23.75 19.1977 24.1977 18.75 24.75 18.75H25.25ZM26.26 3.75C26.945 3.75 27.5 4.30625 27.5 4.99125V15.25C27.5 15.8023 27.0523 16.25 26.5 16.25H26C25.4477 16.25 25 15.8023 25 15.25V6.25H5V23.7488L16.7929 11.957C17.1834 11.5665 17.8166 11.5666 18.2071 11.9571L20.9571 14.7071C21.1446 14.8946 21.25 15.149 21.25 15.4142V16.122C21.25 17.0129 20.1729 17.4591 19.5429 16.8291L17.5 14.7863L8.53375 23.75H16.5C17.0523 23.75 17.5 24.1977 17.5 24.75V25.25C17.5 25.8023 17.0523 26.25 16.5 26.25H3.74C3.41102 26.2497 3.09562 26.1187 2.86311 25.886C2.6306 25.6533 2.5 25.3377 2.5 25.0088V4.99125C2.50229 4.66297 2.63363 4.34877 2.86564 4.11652C3.09766 3.88427 3.41173 3.75262 3.74 3.75H26.26ZM10 8.75C10.663 8.75 11.2989 9.01339 11.7678 9.48223C12.2366 9.95107 12.5 10.587 12.5 11.25C12.5 11.913 12.2366 12.5489 11.7678 13.0178C11.2989 13.4866 10.663 13.75 10 13.75C9.33696 13.75 8.70107 13.4866 8.23223 13.0178C7.76339 12.5489 7.5 11.913 7.5 11.25C7.5 10.587 7.76339 9.95107 8.23223 9.48223C8.70107 9.01339 9.33696 8.75 10 8.75Z" fill="#909CB5"/>
</g>
<defs>
<clipPath id="clip0_1294_16194">
<rect width="30" height="30" fill="white"/>
</clipPath>
</defs>
</svg>
