<svg width="24" height="24" viewBox="0 0 24 24" fill="none" xmlns="http://www.w3.org/2000/svg">
<path d="M12.3248 23.3526C10.6794 23.3526 9.13023 23.0534 7.67717 22.4551C6.24548 21.8568 4.99542 21.0341 3.92699 19.987C2.85857 18.9186 2.01451 17.6792 1.39482 16.2689C0.796505 14.8372 0.497346 13.2987 0.497346 11.6533C0.497346 10.0079 0.80719 8.48009 1.42688 7.06977C2.04656 5.65944 2.9013 4.43075 3.9911 3.38369C5.10226 2.31527 6.39506 1.49258 7.86949 0.915632C9.34392 0.317313 10.9252 0.0181537 12.6133 0.0181537C14.5578 0.0181537 16.3207 0.370734 17.902 1.0759C19.5046 1.78106 20.8295 2.75332 21.8766 3.9927L18.4469 7.42235C17.7204 6.48213 16.8656 5.77697 15.8827 5.30686C14.8997 4.83676 13.7886 4.6017 12.5492 4.6017C11.2243 4.6017 10.0384 4.90086 8.99133 5.49918C7.94428 6.07613 7.12159 6.89882 6.52327 7.96724C5.94632 9.0143 5.65784 10.243 5.65784 11.6533C5.65784 13.0636 5.94632 14.303 6.52327 15.3714C7.10022 16.4399 7.89085 17.2732 8.89518 17.8716C9.8995 18.4699 11.0534 18.769 12.3569 18.769C13.6817 18.769 14.8036 18.5233 15.7224 18.0318C16.6626 17.519 17.3785 16.7924 17.87 15.8522C18.3828 14.8906 18.6392 13.7261 18.6392 12.3585L21.9727 14.6022L11.8761 14.4419V10.1789H23.7677V10.9161C23.7677 13.6299 23.2762 15.9163 22.2932 17.7754C21.3317 19.6131 19.9854 21.002 18.2546 21.9423C16.5451 22.8825 14.5685 23.3526 12.3248 23.3526Z" fill="white"/>
</svg>
