<svg width="30" height="27" viewBox="0 0 30 27" fill="none" xmlns="http://www.w3.org/2000/svg">
<path d="M25 16C25.5522 16 26 16.4477 26 17V20H29C29.5522 20 30 20.4477 30 21V21.6667C30 22.219 29.5522 22.6667 29 22.6667H26V25.6667C26 26.219 25.5522 26.6667 25 26.6667H24.3333C23.781 26.6667 23.3333 26.219 23.3333 25.6667V22.6667H20.3333C19.781 22.6667 19.3333 22.219 19.3333 21.6667V21C19.3333 20.4477 19.781 20 20.3333 20H23.3333V17C23.3333 16.4477 23.781 16 24.3333 16H25ZM26.0106 0C26.7413 0 27.3333 0.593333 27.3333 1.324V12.3333C27.3333 12.8856 26.8856 13.3333 26.3333 13.3333H25.6666C25.1143 13.3333 24.6666 12.8856 24.6666 12.3333V2.66667H3.33329V21.332L15.9595 8.70704C16.35 8.31655 16.9832 8.31656 17.3737 8.70707L20.3737 11.7071C20.5613 11.8946 20.6666 12.149 20.6666 12.4142V13.3578C20.6666 14.2487 19.5895 14.6949 18.9595 14.0649L16.6666 11.772L7.10263 21.3333H15.6666C16.2189 21.3333 16.6666 21.781 16.6666 22.3333V23C16.6666 23.5523 16.2189 24 15.6666 24H1.98929C1.63838 23.9996 1.30196 23.86 1.05395 23.6117C0.805935 23.3635 0.666626 23.0269 0.666626 22.676V1.324C0.669066 0.973837 0.80916 0.63869 1.05664 0.390957C1.30413 0.143224 1.63913 0.00279287 1.98929 0H26.0106ZM8.66663 5.33333C9.37387 5.33333 10.0521 5.61428 10.5522 6.11438C11.0523 6.61448 11.3333 7.29276 11.3333 8C11.3333 8.70724 11.0523 9.38552 10.5522 9.88562C10.0521 10.3857 9.37387 10.6667 8.66663 10.6667C7.95938 10.6667 7.28111 10.3857 6.78101 9.88562C6.28091 9.38552 5.99996 8.70724 5.99996 8C5.99996 7.29276 6.28091 6.61448 6.78101 6.11438C7.28111 5.61428 7.95938 5.33333 8.66663 5.33333Z" fill="#91969E"/>
</svg>
