<svg width="19" height="33" viewBox="0 0 19 33" fill="none" xmlns="http://www.w3.org/2000/svg">
<path d="M16.3444 0H5.04324C4.09795 0 3.32893 0.769019 3.32893 1.71438V14.8225C3.22832 14.9593 3.06087 15.1805 2.89698 15.397C2.29008 16.1988 1.3729 17.4105 0.825926 18.2716C-0.252667 19.9723 -0.273488 21.6716 0.756419 23.9539C0.763592 23.9698 0.771463 23.9854 0.779969 24.0007C0.779969 24.0007 2.06949 26.3329 2.12478 26.435C2.45035 27.0365 2.99524 28.0433 2.96071 28.8346C2.96032 28.8438 2.96013 28.853 2.96013 28.8622V30.7389C2.96013 31.71 3.75016 32.5 4.72123 32.5H10.4572C11.4283 32.5 12.2183 31.71 12.2183 30.7389L12.2129 29.0946C12.2132 28.4616 12.309 28.1282 12.43 27.7063C12.5127 27.4181 12.6063 27.0915 12.6736 26.6491C12.6753 26.6376 12.6767 26.6262 12.6778 26.6146C12.7717 25.64 12.5184 24.6989 12.2503 23.7025C12.0982 23.137 11.9358 22.5336 11.8196 21.8662H16.3444C17.2897 21.8662 18.0587 21.0971 18.0587 20.1518V13.7841C18.0587 13.4335 17.7745 13.1493 17.424 13.1493C17.0734 13.1493 16.7892 13.4335 16.7892 13.7841V20.1517C16.7892 20.397 16.5896 20.5966 16.3444 20.5966H14.847V1.26953H16.3444C16.5896 1.26953 16.7891 1.4691 16.7891 1.71438V15.5821C16.7891 15.9326 17.0734 16.2169 17.4239 16.2169C17.7744 16.2169 18.0587 15.9326 18.0587 15.5821V1.71438C18.0587 0.769019 17.2896 0 16.3444 0ZM10.4572 31.2305H4.72116C4.45469 31.2305 4.2296 31.0053 4.2296 30.7389V28.8751C4.27321 27.7375 3.62765 26.5446 3.24127 25.8307C3.1884 25.7331 1.90293 23.4081 1.90293 23.4081C1.05882 21.5271 1.058 20.2761 1.89779 18.9519C2.26545 18.3732 2.82334 17.6091 3.32893 16.9333V20.1518C3.32893 21.0971 4.09795 21.8662 5.04324 21.8662H7.07856V23.9843C7.07856 24.3348 7.36274 24.6191 7.71332 24.6191C8.0639 24.6191 8.34809 24.3348 8.34809 23.9843V17.2999C8.34809 16.7272 8.81394 16.2613 9.38663 16.2613C9.66522 16.2613 9.92808 16.3714 10.1268 16.5713C10.322 16.7676 10.4286 17.0251 10.4269 17.2961C10.4256 17.5136 10.4223 18.945 10.3969 19.6092C10.3743 20.1968 10.3992 20.7433 10.4532 21.2535C10.4545 21.2905 10.5037 21.6665 10.5262 21.8138C10.6541 22.654 10.8508 23.3876 11.0243 24.0323C11.2701 24.9457 11.4827 25.7354 11.4157 26.476C11.361 26.8285 11.2874 27.0849 11.2096 27.356C11.0787 27.8123 10.9433 28.2842 10.9433 29.0979C10.9433 29.1001 10.9433 29.1023 10.9434 29.1045L10.9487 30.7388C10.9487 31.0053 10.7236 31.2305 10.4572 31.2305ZM13.5775 20.5966H11.6734C11.6571 20.2968 11.6952 17.5195 11.6965 17.3037C11.7001 16.692 11.4624 16.114 11.0271 15.6762C10.5883 15.2348 10.0057 14.9918 9.38656 14.9918C8.11392 14.9918 7.07849 16.0272 7.07849 17.2999V20.5966H5.04318C4.79791 20.5966 4.5984 20.3971 4.5984 20.1518V1.71438C4.5984 1.4691 4.79797 1.26953 5.04318 1.26953H13.5775V20.5966Z" fill="#CB11AB"/>
</svg>
