<svg width="291" height="123" viewBox="0 0 291 123" fill="none" xmlns="http://www.w3.org/2000/svg">
<g filter="url(#filter0_d_441_11561)">
<path d="M173.429 10.2227L174.544 10.8097L177.371 10.7406L178.612 12.513L178.474 13.5372L179.209 13.8249L183.209 13.0309L183.645 13.7099L186.093 14.3544L188.46 15.862L188.679 16.9784L191.322 18.1523L195.057 17.6344L196.367 22.0998L197.413 23.2852L199.78 23.7455L203.917 23.3542L205.296 22.3069L205.365 18.7622L206.285 18.1062H207.997L209.64 19.0269L211.088 22.376L211.812 24.7468L210.56 27.693L211.755 28.7288L212.732 31.7902H213.651L215.559 29.2927L218.248 27.4514L218.708 27.7851L221.856 25.4833L222.902 25.023L223.764 25.3683L224.385 24.8043L224.419 22.986L222.776 21.8006L224.04 19.7865L227.442 19.4412L230.786 21.4783L232.188 21.7085L235.314 18.7162L238.658 18.4515L238.348 16.2994L242.266 14.4234L249.656 12.3863H251.265L252.333 13.2495L252.759 14.5385L251.586 19.3607L253.299 21.5013V22.3645L250.196 24.6202L250.943 25.4833L255.873 27.4168L257.16 28.5907L257.7 30.0868V31.583L254.276 34.5868L257.804 35.7607L258.872 36.5088L259.298 37.6826L258.332 40.8936L259.826 43.0342L259.93 44.4268L258.114 49.0303L258.217 50.5264L262.711 51.3896L265.71 53.3231L267.963 59.0084L269.778 61.3677H271.272L272.559 59.7565L273.525 59.4342L275.341 60.1823L275.662 61.2526L276.834 62.2193L275.662 63.5083L277.375 64.6937L279.949 67.8011L280.696 70.6898L279.627 71.4379L279.305 73.6936L276.524 75.512L270.318 77.549L269.457 78.6193L266.676 78.9416L263.998 82.1525L260.033 83.1193L258.964 83.9824L255.321 85.0527L252.862 83.6602L249.116 83.338L247.185 83.5566L243.013 85.4901L241.198 83.5566L236.808 83.453L232.739 80.2421L229.637 79.8163L225.994 80.3572L223.316 78.1014L219.466 77.5605L217.535 76.6974L216.248 75.7306L215.708 73.9123L211.1 73.2678L209.169 77.0196L207.779 77.8828L201.251 78.5273L200.286 79.1718L197.183 84.6385L196.758 87.9645L195.631 89.5066L194.011 88.4709L193.092 88.5399L193.161 89.99L188.437 91.1064L187.645 93.4081L186.852 93.8685L183.438 93.5347L181.048 94.4554L180.416 97.0794L178.382 99.5078L176.279 99.243L175.486 97.7354H174.567L169.843 100.371L163.592 99.5768L161.753 99.9681L160.902 100.555L160.443 102.063L159.857 108.508L158.018 110.809L156.306 111.201L153.743 110.809L149.284 108.381L147.181 112.455L145.273 112.064L144.354 110.878L143.17 110.683L140.745 112.915L138.642 113.042L135.551 111.995L133.057 109.831L133.758 104.008L132.138 101.752L128.196 99.5883L125.174 92.9477L124.059 92.1537L117.945 90.9798L115.325 88.1486L114.21 88.3442L113.291 89.6563L110.728 89.99L109.383 91.4056L106.66 91.0373L105.016 93.0744L100.948 91.1754L99.7646 93.5923L98.1097 94.9963L96.2135 98.0692L92.2718 98.0001L91.226 97.0794L90.9617 94.7777L89.1229 93.2009L88.0772 93.1319L85.388 95.0999L84.2733 94.9733L80.3315 91.3596L77.424 93.0398L76.7575 94.3979L74.2867 93.8685L72.1951 96.9528L70.5517 97.0794L69.1727 93.995L66.7479 93.926L63.5301 92.8096L62.6107 93.3966L61.6224 96.55L59.5423 97.4822L53.2792 92.6715L47.4412 90.7036L45.6714 90.7726L44.2924 92.0846L42.5915 92.2803L40.7528 91.7509L40.0518 90.9107L38.5118 91.2905L36.133 94.4554L34.662 94.582L33.7196 95.4452L33.7886 96.3659L31.5591 96.2968L28.2609 97.3556L27.2611 96.6076L25.5143 97.4132L23.0205 96.5615L22.0322 94.5935H20.837L20.1245 97.4822L18.6076 98.7252L16.3781 96.9528L16.4471 94.7892L17.4354 93.5347L17.6997 91.6933L15.2749 84.4658L15.2059 79.8623L14.4819 77.2268L11.2641 73.1872V68.8944L10.0804 67.8702L10 66.6272L15.5851 60.2859L12.9535 56.5685L14.4589 52.1607L17.1481 49.9625L17.8721 48.2477L16.0333 45.4856L16.6194 44.6915L17.5388 45.0828L18.8489 47.3155L20.883 47.1198L22.5264 48.3052L23.8365 50.3423L24.1697 55.2105L27.1232 55.6709L29.2262 53.864L31.1339 53.5072L33.3634 54.2323L33.8231 53.7029L30.8696 49.1684L30.2146 46.4063L31.2603 35.3579L32.1797 34.6328L33.892 34.7594L36.3169 36.3361L42.0974 34.0344L43.8671 34.1034L44.2579 35.0932L45.4416 34.9666L47.671 31.3528L52.1299 28.7288L57.5082 26.9565L60.9559 27.0831L64.6333 26.1623L71.655 23.3312L73.1604 23.4003L79.3317 27.014L83.7332 31.3528L85.1122 31.4794L86.1005 30.4321L87.4106 30.9615L87.6749 32.6073L89.1804 34.253L94.168 33.8617L95.4206 34.3221L98.2476 36.0369L100.351 36.2325L100.477 37.6136L101.201 38.2696L106.384 41.1007L115.968 43.6672L118.336 45.1749L119.186 45.969L118.727 47.6147L115.968 49.1224L112.096 52.4139L111.636 56.3614L112.222 57.7424L113.406 57.9381L113.233 54.8077L113.796 52.7476L114.589 52.1607L117.083 52.2873L122.071 49.4561L121.806 47.281L123.312 45.1173L124.162 37.2568L126.656 36.2095L135.976 34.3681L137.229 32.193L136.964 29.3618L139.194 28.5677L140.113 29.3618L141.918 28.8669L144.768 27.0025L151.134 24.436L152.168 21.743L150.065 18.1983L150.594 16.9438L152.364 16.3569L157.949 16.1613L161.891 13.7329L164.775 10.1882L168.579 9.79688L173.429 10.2227ZM157.627 23.8146L158.294 22.5256L158.34 20.6612L157.501 19.5563L156.616 20.6612L157.099 23.4118L157.627 23.8146ZM209.594 26.1163L209.882 25.023L207.698 24.39V25.8286L208.273 26.0012L209.594 26.1163ZM154.927 30.8695L155.145 34.4142L154.478 39.386L155.191 42.0445L156.524 43.9089L158.202 44.8871L161.661 45.4165L162.638 45.992L162.81 46.9702L162.454 48.4318L161.259 48.9152L162.81 51.8845L159.926 54.6811L159.259 56.9483L157.846 58.0187L158.156 58.8128L160.454 59.0774L162.006 60.447L162.626 59.6874L161.787 58.7092L162.006 57.6849L162.982 56.488L164.178 56.7527L163.959 59.1925L164.626 59.5493L168.752 58.9739L171.498 55.9125L171.671 55.1184L170.694 54.1402L170.866 52.8972L169.935 52.3218L165.154 52.4944L165.063 51.6543L166.74 50.8947L167.189 49.9625L166.924 48.7195L165.637 47.304L167.591 46.6825L170.119 44.9101L170.475 44.1506L170.073 42.9537L165.419 45.2554L164.396 45.1633L162.58 37.9704L160.891 37.2108L160.006 36.0599L159.294 32.3771L157.478 28.7863L154.995 27.5895L153.8 28.257L154.019 29.0971L154.927 30.8695ZM215.455 53.8755L218.604 51.6658L222.776 52.2182L223.879 49.6978L217.892 44.726L217.03 45.7503L217.972 48.3513L216.237 49.7668L213.318 50.4804L213.007 51.7464L215.455 53.8755ZM114.854 59.9636L114.153 61.3677L116.014 64.6362L116.382 67.663L117.577 67.8586L120.335 66.7883L121.002 67.1911L121.565 68.319L120.565 71.1156L120.864 72.4506L123.427 70.7243L126.219 66.7308L130.046 65.0965L131.839 62.7027L131.345 61.0685L130.046 60.8038L126.518 61.7705L123.657 61.7014L117.405 59.768L114.854 59.9636Z" fill="white"/>
<path d="M173.429 10.2227L174.544 10.8097L177.371 10.7406L178.612 12.513L178.474 13.5372L179.209 13.8249L183.209 13.0309L183.645 13.7099L186.093 14.3544L188.46 15.862L188.679 16.9784L191.322 18.1523L195.057 17.6344L196.367 22.0998L197.413 23.2852L199.78 23.7455L203.917 23.3542L205.296 22.3069L205.365 18.7622L206.285 18.1062H207.997L209.64 19.0269L211.088 22.376L211.812 24.7468L210.56 27.693L211.755 28.7288L212.732 31.7902H213.651L215.559 29.2927L218.248 27.4514L218.708 27.7851L221.856 25.4833L222.902 25.023L223.764 25.3683L224.385 24.8043L224.419 22.986L222.776 21.8006L224.04 19.7865L227.442 19.4412L230.786 21.4783L232.188 21.7085L235.314 18.7162L238.658 18.4515L238.348 16.2994L242.266 14.4234L249.656 12.3863H251.265L252.333 13.2495L252.759 14.5385L251.586 19.3607L253.299 21.5013V22.3645L250.196 24.6202L250.943 25.4833L255.873 27.4168L257.16 28.5907L257.7 30.0868V31.583L254.276 34.5868L257.804 35.7607L258.872 36.5088L259.298 37.6826L258.332 40.8936L259.826 43.0342L259.93 44.4268L258.114 49.0303L258.217 50.5264L262.711 51.3896L265.71 53.3231L267.963 59.0084L269.778 61.3677H271.272L272.559 59.7565L273.525 59.4342L275.341 60.1823L275.662 61.2526L276.834 62.2193L275.662 63.5083L277.375 64.6937L279.949 67.8011L280.696 70.6898L279.627 71.4379L279.305 73.6936L276.524 75.512L270.318 77.549L269.457 78.6193L266.676 78.9416L263.998 82.1525L260.033 83.1193L258.964 83.9824L255.321 85.0527L252.862 83.6602L249.116 83.338L247.185 83.5566L243.013 85.4901L241.198 83.5566L236.808 83.453L232.739 80.2421L229.637 79.8163L225.994 80.3572L223.316 78.1014L219.466 77.5605L217.535 76.6974L216.248 75.7306L215.708 73.9123L211.1 73.2678L209.169 77.0196L207.779 77.8828L201.251 78.5273L200.286 79.1718L197.183 84.6385L196.758 87.9645L195.631 89.5066L194.011 88.4709L193.092 88.5399L193.161 89.99L188.437 91.1064L187.645 93.4081L186.852 93.8685L183.438 93.5347L181.048 94.4554L180.416 97.0794L178.382 99.5078L176.279 99.243L175.486 97.7354H174.567L169.843 100.371L163.592 99.5768L161.753 99.9681L160.902 100.555L160.443 102.063L159.857 108.508L158.018 110.809L156.306 111.201L153.743 110.809L149.284 108.381L147.181 112.455L145.273 112.064L144.354 110.878L143.17 110.683L140.745 112.915L138.642 113.042L135.551 111.995L133.057 109.831L133.758 104.008L132.138 101.752L128.196 99.5883L125.174 92.9477L124.059 92.1537L117.945 90.9798L115.325 88.1486L114.21 88.3442L113.291 89.6563L110.728 89.99L109.383 91.4056L106.66 91.0373L105.016 93.0744L100.948 91.1754L99.7646 93.5923L98.1097 94.9963L96.2135 98.0692L92.2718 98.0001L91.226 97.0794L90.9617 94.7777L89.1229 93.2009L88.0772 93.1319L85.388 95.0999L84.2733 94.9733L80.3315 91.3596L77.424 93.0398L76.7575 94.3979L74.2867 93.8685L72.1951 96.9528L70.5517 97.0794L69.1727 93.995L66.7479 93.926L63.5301 92.8096L62.6107 93.3966L61.6224 96.55L59.5423 97.4822L53.2792 92.6715L47.4412 90.7036L45.6714 90.7726L44.2924 92.0846L42.5915 92.2803L40.7528 91.7509L40.0518 90.9107L38.5118 91.2905L36.133 94.4554L34.662 94.582L33.7196 95.4452L33.7886 96.3659L31.5591 96.2968L28.2609 97.3556L27.2611 96.6076L25.5143 97.4132L23.0205 96.5615L22.0322 94.5935H20.837L20.1245 97.4822L18.6076 98.7252L16.3781 96.9528L16.4471 94.7892L17.4354 93.5347L17.6997 91.6933L15.2749 84.4658L15.2059 79.8623L14.4819 77.2268L11.2641 73.1872V68.8944L10.0804 67.8702L10 66.6272L15.5851 60.2859L12.9535 56.5685L14.4589 52.1607L17.1481 49.9625L17.8721 48.2477L16.0333 45.4856L16.6194 44.6915L17.5388 45.0828L18.8489 47.3155L20.883 47.1198L22.5264 48.3052L23.8365 50.3423L24.1697 55.2105L27.1232 55.6709L29.2262 53.864L31.1339 53.5072L33.3634 54.2323L33.8231 53.7029L30.8696 49.1684L30.2146 46.4063L31.2603 35.3579L32.1797 34.6328L33.892 34.7594L36.3169 36.3361L42.0974 34.0344L43.8671 34.1034L44.2579 35.0932L45.4416 34.9666L47.671 31.3528L52.1299 28.7288L57.5082 26.9565L60.9559 27.0831L64.6333 26.1623L71.655 23.3312L73.1604 23.4003L79.3317 27.014L83.7332 31.3528L85.1122 31.4794L86.1005 30.4321L87.4106 30.9615L87.6749 32.6073L89.1804 34.253L94.168 33.8617L95.4206 34.3221L98.2476 36.0369L100.351 36.2325L100.477 37.6136L101.201 38.2696L106.384 41.1007L115.968 43.6672L118.336 45.1749L119.186 45.969L118.727 47.6147L115.968 49.1224L112.096 52.4139L111.636 56.3614L112.222 57.7424L113.406 57.9381L113.233 54.8077L113.796 52.7476L114.589 52.1607L117.083 52.2873L122.071 49.4561L121.806 47.281L123.312 45.1173L124.162 37.2568L126.656 36.2095L135.976 34.3681L137.229 32.193L136.964 29.3618L139.194 28.5677L140.113 29.3618L141.918 28.8669L144.768 27.0025L151.134 24.436L152.168 21.743L150.065 18.1983L150.594 16.9438L152.364 16.3569L157.949 16.1613L161.891 13.7329L164.775 10.1882L168.579 9.79688L173.429 10.2227ZM157.627 23.8146L158.294 22.5256L158.34 20.6612L157.501 19.5563L156.616 20.6612L157.099 23.4118L157.627 23.8146ZM209.594 26.1163L209.882 25.023L207.698 24.39V25.8286L208.273 26.0012L209.594 26.1163ZM154.927 30.8695L155.145 34.4142L154.478 39.386L155.191 42.0445L156.524 43.9089L158.202 44.8871L161.661 45.4165L162.638 45.992L162.81 46.9702L162.454 48.4318L161.259 48.9152L162.81 51.8845L159.926 54.6811L159.259 56.9483L157.846 58.0187L158.156 58.8128L160.454 59.0774L162.006 60.447L162.626 59.6874L161.787 58.7092L162.006 57.6849L162.982 56.488L164.178 56.7527L163.959 59.1925L164.626 59.5493L168.752 58.9739L171.498 55.9125L171.671 55.1184L170.694 54.1402L170.866 52.8972L169.935 52.3218L165.154 52.4944L165.063 51.6543L166.74 50.8947L167.189 49.9625L166.924 48.7195L165.637 47.304L167.591 46.6825L170.119 44.9101L170.475 44.1506L170.073 42.9537L165.419 45.2554L164.396 45.1633L162.58 37.9704L160.891 37.2108L160.006 36.0599L159.294 32.3771L157.478 28.7863L154.995 27.5895L153.8 28.257L154.019 29.0971L154.927 30.8695ZM215.455 53.8755L218.604 51.6658L222.776 52.2182L223.879 49.6978L217.892 44.726L217.03 45.7503L217.972 48.3513L216.237 49.7668L213.318 50.4804L213.007 51.7464L215.455 53.8755ZM114.854 59.9636L114.153 61.3677L116.014 64.6362L116.382 67.663L117.577 67.8586L120.335 66.7883L121.002 67.1911L121.565 68.319L120.565 71.1156L120.864 72.4506L123.427 70.7243L126.219 66.7308L130.046 65.0965L131.839 62.7027L131.345 61.0685L130.046 60.8038L126.518 61.7705L123.657 61.7014L117.405 59.768L114.854 59.9636Z" stroke="white" stroke-width="0.476939"/>
</g>
<defs>
<filter id="filter0_d_441_11561" x="0.216831" y="0.018528" width="290.29" height="122.803" filterUnits="userSpaceOnUse" color-interpolation-filters="sRGB">
<feFlood flood-opacity="0" result="BackgroundImageFix"/>
<feColorMatrix in="SourceAlpha" type="matrix" values="0 0 0 0 0 0 0 0 0 0 0 0 0 0 0 0 0 0 127 0" result="hardAlpha"/>
<feOffset/>
<feGaussianBlur stdDeviation="4.76939"/>
<feComposite in2="hardAlpha" operator="out"/>
<feColorMatrix type="matrix" values="0 0 0 0 0 0 0 0 0 0 0 0 0 0 0 0 0 0 0.25 0"/>
<feBlend mode="normal" in2="BackgroundImageFix" result="effect1_dropShadow_441_11561"/>
<feBlend mode="normal" in="SourceGraphic" in2="effect1_dropShadow_441_11561" result="shape"/>
</filter>
</defs>
</svg>
