<svg width="365" height="178" viewBox="0 0 365 178" fill="none" xmlns="http://www.w3.org/2000/svg">
<g filter="url(#filter0_d_441_11562)">
<path d="M108.784 12.1062H111.082L113.45 15.1905L115.541 14.9949V16.0537L116.208 16.514L117.185 17.0319L118.299 16.7672L118.828 17.6879L119.874 17.4347L122.574 20.3925L125.723 21.5664L126.309 22.6252L128.608 21.9692L129.987 23.1546L135.641 24.6622L136.158 26.308L141.088 32.4882L143.444 34.5943L145.616 35.446L146.995 37.9434L150.075 39.9804L151.718 40.2451L153.626 39.3935L154.741 39.7157L156.683 38.726L157.798 39.0597L163.578 41.6952L164.819 42.9382L172.967 47.2079L178.943 48.9227L182.816 51.6158L186.551 52.6746L189.24 54.8382L194.365 54.5735L199.158 55.9546H202.755L209.259 57.4047L213.063 56.8753L230.922 61.6054L233.611 57.7269L234.783 57.0249L236.461 50.0736L238.288 47.7373L240.966 45.6312L247.263 43.8589L248.643 44.2502L250.148 46.5519L253.492 46.9432L255.917 48.8537H257.825L264.72 46.9432L269.317 47.0813L270.558 48.0711L276.867 48.1977L278.246 48.9918L278.936 53.4917L280.338 54.2513L282.579 54.3779L293.726 51.1669L294.783 49.1184L295.703 48.5084L301.782 49.5442L303.31 48.7271L306.448 49.5442L312.952 49.5097L314.791 48.3933L315.572 47.0468L315.71 45.0443L316.572 44.2502L321.226 43.9279L322.479 41.6952L323.456 41.5571L329.236 42.5469L331.213 41.2924L334.741 40.7975L335.982 41.3269L337.901 44.2502L339.154 44.1236L341.901 41.7873L346.819 42.1786L348.267 42.5814L348.784 45.0097L351.037 45.309L354.37 47.9445L353.393 49.4521L350.255 50.2347L346.601 53.5032L344.9 58.9929L343.602 59.6489L340.464 59.131L328.317 60.6962L326.628 61.2141L325.835 62.1348L322.445 61.7435L317.227 64.0913L315.262 64.356L309.654 63.5734L306.643 64.8854L303.908 64.4941L301.816 65.4033L297.771 64.7473L295.415 65.2767L294.243 64.2294L292.025 64.0913L291.899 66.7153L288.761 67.1066L286.934 68.0158L284.061 67.6245L281.843 69.9838L274.27 74.8175L272.178 77.1768L269.305 78.4772L268.915 81.4925L267.742 82.2751L266.042 82.793L264.214 82.0104H260.422L258.204 82.5283L256.905 83.5756L251.676 84.4963L250.769 85.5436L246.321 85.4055L243.322 86.0615L240.449 84.761L237.84 84.3582L237.185 85.7968L237.84 88.4208L237.702 90.7686L233.657 90.9067L232.094 92.2072H230.393L229.347 93.1279L227.658 97.0524L223.475 100.056L222.038 101.759L217.465 103.716L215.775 102.669L214.339 102.542L213.684 101.357L213.81 100.183L212.638 99.9181L212.121 100.839L210.684 101.495L208.455 102.151L206.237 101.759L204.41 102.404L201.41 100.321L200.1 102.013L196.446 102.151L193.32 103.451L187.574 101.357L183.919 102.277L182.345 101.759L181.299 100.574L177.782 103.06L174.519 103.198L173.209 101.23L171.898 100.839L169.29 102.277L163.417 101.357L162.107 102.013L153.362 102.795L153.752 104.637L156.361 107.64L157.281 110.126L158.843 112.209L159.372 115.225L158.188 116.134L156.108 115.616L151.799 116.134L149.834 117.055L147.099 120.588L143.961 123.062L140.697 122.544L135.009 124.57L132.262 124.443L128.608 125.352L125.861 124.708L122.735 125.744L119.598 126.008L116.07 125.352L113.852 135.687L115.162 136.861L118.943 138.565L119.334 139.738L118.288 140.13L117.242 141.833L115.553 142.224L113.978 143.536L113.335 144.837L114.369 148.761L113.588 150.718L110.462 152.295L109.359 158.636L107.141 159.027L104.394 158.245L102.831 158.901L101.521 160.074L99.4409 166.347L98.0044 167.394L96.3036 165.438L98.2572 159.81L97.7401 159.154L93.3041 159.936L91.6033 159.545L90.8219 157.715L87.6845 154.838L86.3859 152.755L84.4208 154.711L83.1107 154.447L81.0306 155.367H75.1466L74.2388 154.585L70.8486 155.367L70.0787 154.942L69.9982 152.582L69.2972 151.8L68.7686 149.256L67.5504 148.646L63.8729 148.117L54.3575 150.396L52.9555 149.348L51.8177 149.256L50.8524 150.303L48.3241 150.05L46.8417 148.474L44.4743 148.646L36.6137 146.195L34.9474 146.632L33.1202 145.055L32.1548 141.119L30.7528 139.198L21.7545 136.746L18.0196 137.091L15.4568 136.079L15.0431 134.065L15.6062 130.888L11.8713 129.53L10.2969 127.378L10.6302 121.486L11.538 120.691L16.5141 122.28L21.6051 117.86L22.8462 117.63L24.547 118.321L28.6152 116.847L33.373 118.09L36.4184 115.374L41.1761 115.029L46.2671 116.732L54.7482 113.786L56.1043 112.198L56.3341 108.573L59.5059 104.717L60.2989 102.346V100.194L57.6902 98.3759L56.2192 99.6189L54.9781 99.4002L54.1851 97.2481L52.944 95.9936L51.3581 96.3389L51.2431 98.8248L50.002 102.68L49.0941 103.025L47.853 102.392L48.0024 100.666L44.9225 97.7084L41.9001 91.8159L40.5211 86.7636L40.59 80.5834L42.5092 75.577L42.8884 72.1129L45.3822 67.2332L47.2669 64.8624L48.1288 56.0927L47.6116 52.0761L46.5084 49.5097L47.037 47.0123L50.048 43.9855L49.9101 38.6684L50.8409 36.3667L54.9091 35.3769L57.943 33.7196L60.4253 31.3028L64.6314 29.1276L69.6879 25.3873L70.4464 26.3655L72.0208 26.8949L73.1355 25.7095L79.3987 26.308L81.1685 24.5241L81.5362 23.3157L82.1683 23.5114L84.8919 15.6509L88.6958 17.0319L90.2013 19.5293L92.2469 20.5766L93.9477 19.9897L95.7175 18.3439L104.187 17.8951L105.44 17.2966L105.957 16.0537L103.601 11.8415L104.118 10.0001L106.164 11.4502L108.784 12.1062Z" fill="white"/>
<path d="M108.784 12.1062H111.082L113.45 15.1905L115.541 14.9949V16.0537L116.208 16.514L117.185 17.0319L118.299 16.7672L118.828 17.6879L119.874 17.4347L122.574 20.3925L125.723 21.5664L126.309 22.6252L128.608 21.9692L129.987 23.1546L135.641 24.6622L136.158 26.308L141.088 32.4882L143.444 34.5943L145.616 35.446L146.995 37.9434L150.075 39.9804L151.718 40.2451L153.626 39.3935L154.741 39.7157L156.683 38.726L157.798 39.0597L163.578 41.6952L164.819 42.9382L172.967 47.2079L178.943 48.9227L182.816 51.6158L186.551 52.6746L189.24 54.8382L194.365 54.5735L199.158 55.9546H202.755L209.259 57.4047L213.063 56.8753L230.922 61.6054L233.611 57.7269L234.783 57.0249L236.461 50.0736L238.288 47.7373L240.966 45.6312L247.263 43.8589L248.643 44.2502L250.148 46.5519L253.492 46.9432L255.917 48.8537H257.825L264.72 46.9432L269.317 47.0813L270.558 48.0711L276.867 48.1977L278.246 48.9918L278.936 53.4917L280.338 54.2513L282.579 54.3779L293.726 51.1669L294.783 49.1184L295.703 48.5084L301.782 49.5442L303.31 48.7271L306.448 49.5442L312.952 49.5097L314.791 48.3933L315.572 47.0468L315.71 45.0443L316.572 44.2502L321.226 43.9279L322.479 41.6952L323.456 41.5571L329.236 42.5469L331.213 41.2924L334.741 40.7975L335.982 41.3269L337.901 44.2502L339.154 44.1236L341.901 41.7873L346.819 42.1786L348.267 42.5814L348.784 45.0097L351.037 45.309L354.37 47.9445L353.393 49.4521L350.255 50.2347L346.601 53.5032L344.9 58.9929L343.602 59.6489L340.464 59.131L328.317 60.6962L326.628 61.2141L325.835 62.1348L322.445 61.7435L317.227 64.0913L315.262 64.356L309.654 63.5734L306.643 64.8854L303.908 64.4941L301.816 65.4033L297.771 64.7473L295.415 65.2767L294.243 64.2294L292.025 64.0913L291.899 66.7153L288.761 67.1066L286.934 68.0158L284.061 67.6245L281.843 69.9838L274.27 74.8175L272.178 77.1768L269.305 78.4772L268.915 81.4925L267.742 82.2751L266.042 82.793L264.214 82.0104H260.422L258.204 82.5283L256.905 83.5756L251.676 84.4963L250.769 85.5436L246.321 85.4055L243.322 86.0615L240.449 84.761L237.84 84.3582L237.185 85.7968L237.84 88.4208L237.702 90.7686L233.657 90.9067L232.094 92.2072H230.393L229.347 93.1279L227.658 97.0524L223.475 100.056L222.038 101.759L217.465 103.716L215.775 102.669L214.339 102.542L213.684 101.357L213.81 100.183L212.638 99.9181L212.121 100.839L210.684 101.495L208.455 102.151L206.237 101.759L204.41 102.404L201.41 100.321L200.1 102.013L196.446 102.151L193.32 103.451L187.574 101.357L183.919 102.277L182.345 101.759L181.299 100.574L177.782 103.06L174.519 103.198L173.209 101.23L171.898 100.839L169.29 102.277L163.417 101.357L162.107 102.013L153.362 102.795L153.752 104.637L156.361 107.64L157.281 110.126L158.843 112.209L159.372 115.225L158.188 116.134L156.108 115.616L151.799 116.134L149.834 117.055L147.099 120.588L143.961 123.062L140.697 122.544L135.009 124.57L132.262 124.443L128.608 125.352L125.861 124.708L122.735 125.744L119.598 126.008L116.07 125.352L113.852 135.687L115.162 136.861L118.943 138.565L119.334 139.738L118.288 140.13L117.242 141.833L115.553 142.224L113.978 143.536L113.335 144.837L114.369 148.761L113.588 150.718L110.462 152.295L109.359 158.636L107.141 159.027L104.394 158.245L102.831 158.901L101.521 160.074L99.4409 166.347L98.0044 167.394L96.3036 165.438L98.2572 159.81L97.7401 159.154L93.3041 159.936L91.6033 159.545L90.8219 157.715L87.6845 154.838L86.3859 152.755L84.4208 154.711L83.1107 154.447L81.0306 155.367H75.1466L74.2388 154.585L70.8486 155.367L70.0787 154.942L69.9982 152.582L69.2972 151.8L68.7686 149.256L67.5504 148.646L63.8729 148.117L54.3575 150.396L52.9555 149.348L51.8177 149.256L50.8524 150.303L48.3241 150.05L46.8417 148.474L44.4743 148.646L36.6137 146.195L34.9474 146.632L33.1202 145.055L32.1548 141.119L30.7528 139.198L21.7545 136.746L18.0196 137.091L15.4568 136.079L15.0431 134.065L15.6062 130.888L11.8713 129.53L10.2969 127.378L10.6302 121.486L11.538 120.691L16.5141 122.28L21.6051 117.86L22.8462 117.63L24.547 118.321L28.6152 116.847L33.373 118.09L36.4184 115.374L41.1761 115.029L46.2671 116.732L54.7482 113.786L56.1043 112.198L56.3341 108.573L59.5059 104.717L60.2989 102.346V100.194L57.6902 98.3759L56.2192 99.6189L54.9781 99.4002L54.1851 97.2481L52.944 95.9936L51.3581 96.3389L51.2431 98.8248L50.002 102.68L49.0941 103.025L47.853 102.392L48.0024 100.666L44.9225 97.7084L41.9001 91.8159L40.5211 86.7636L40.59 80.5834L42.5092 75.577L42.8884 72.1129L45.3822 67.2332L47.2669 64.8624L48.1288 56.0927L47.6116 52.0761L46.5084 49.5097L47.037 47.0123L50.048 43.9855L49.9101 38.6684L50.8409 36.3667L54.9091 35.3769L57.943 33.7196L60.4253 31.3028L64.6314 29.1276L69.6879 25.3873L70.4464 26.3655L72.0208 26.8949L73.1355 25.7095L79.3987 26.308L81.1685 24.5241L81.5362 23.3157L82.1683 23.5114L84.8919 15.6509L88.6958 17.0319L90.2013 19.5293L92.2469 20.5766L93.9477 19.9897L95.7175 18.3439L104.187 17.8951L105.44 17.2966L105.957 16.0537L103.601 11.8415L104.118 10.0001L106.164 11.4502L108.784 12.1062Z" stroke="white" stroke-width="0.476939"/>
</g>
<defs>
<filter id="filter0_d_441_11562" x="0.515171" y="0.0710793" width="363.711" height="177.183" filterUnits="userSpaceOnUse" color-interpolation-filters="sRGB">
<feFlood flood-opacity="0" result="BackgroundImageFix"/>
<feColorMatrix in="SourceAlpha" type="matrix" values="0 0 0 0 0 0 0 0 0 0 0 0 0 0 0 0 0 0 127 0" result="hardAlpha"/>
<feOffset/>
<feGaussianBlur stdDeviation="4.76939"/>
<feComposite in2="hardAlpha" operator="out"/>
<feColorMatrix type="matrix" values="0 0 0 0 0 0 0 0 0 0 0 0 0 0 0 0 0 0 0.25 0"/>
<feBlend mode="normal" in2="BackgroundImageFix" result="effect1_dropShadow_441_11562"/>
<feBlend mode="normal" in="SourceGraphic" in2="effect1_dropShadow_441_11562" result="shape"/>
</filter>
</defs>
</svg>
