<svg width="396" height="176" viewBox="0 0 396 176" fill="none" xmlns="http://www.w3.org/2000/svg">
<g filter="url(#filter0_d_441_11563)">
<path d="M182.285 10.2497L190.1 11.4927L191.789 12.5054L193.938 15.7969L195.524 16.2458L199.489 15.1179L202.879 17.7189L204.913 17.5002L209.774 20.1012L215.21 19.6524L220.979 22.4835L228.173 28.0308L233.942 27.3517L234.965 23.9567L238.125 22.4835L240.619 19.0769L241.412 18.8583L243.216 20.6651L245.48 19.192L246.388 20.8953L247.974 20.5501L249.778 21.2291L252.456 20.0782L255.019 21.091L258.754 20.7457L267.752 23.1971L269.154 25.119L270.119 29.055L271.947 30.6317L273.613 30.1944L281.473 32.6458L283.841 32.4731L285.323 34.0499L287.852 34.303L288.817 33.2557L289.955 33.3478L291.357 34.3951L300.872 32.1164L304.55 32.6458L305.768 33.2557L306.296 35.7992L306.997 36.5818L307.078 38.9411L308.043 39.4705L306.641 41.8298L302.102 46.5599L302.274 47.1698L306.641 49.4486L307.951 49.5291L309.353 48.3092L310.054 48.4013L312.755 50.9332L315.823 50.2312L316.869 50.7606H320.19L321.581 51.8079L322.109 53.5572L321.765 57.1479L323.856 61.6134L325.695 62.8333H330.326L331.464 63.6274L330.843 68.1734L331.544 69.8421L331.981 75.608L330.935 78.232L329.625 78.3241L327.878 75.9648V74.296L328.844 72.282L328.223 71.0621L325.523 68.7833L321.064 67.8281L318.616 66.1593L316.432 66.8614L316.34 67.8281L319.397 74.8254L321.811 75.8382L322.282 77.3919L323.833 78.9456L327.568 81.443L330.522 81.9033L334.716 81.2818L337.21 81.7537L340.474 83.7792L342.807 82.2141L350.725 81.443L355.241 82.6859L357.252 84.4007H358.965L362.079 80.5108L366.273 79.4174L373.111 79.1067L376.065 78.1745L378.237 75.8382L381.512 74.1234L383.374 73.663L385.856 74.1234L385.235 77.0811L383.833 79.2678L384.305 84.8611L381.661 91.5592L381.351 96.6921L380.42 98.8788L376.375 101.365L375.283 102.93L371.56 103.079L368.756 105.565L362.228 106.509L357.562 109.616L350.575 111.17L349.955 113.506L352.437 117.247L353.219 121.447L349.334 120.826L344.668 122.069L339.531 122.38L337.21 121.919L335.957 124.094L334.096 124.566L332.694 125.809L332.383 127.213L327.718 127.984L326.948 129.538L327.097 131.564L328.189 133.44L333.165 137.168V138.883L329.43 141.841L327.097 145.271L326.476 147.285L324.73 144.96L321.604 144.879L319.294 143.694L315.8 142.865L315.352 136.225L314.904 135.189L313.146 134.291L313.065 131.46L310.767 130.413L309.572 130.631L309.491 132.795L308.078 134.061L307.779 136.225L301.447 142.497L299.734 149.805H298.62L294.448 147.86L292.517 145.409L289.759 143.314V141.818L292.736 138.17L297.804 135.189L298.7 133.773L297.804 130.631L296.16 128.767L295.344 128.917L291.403 130.332L291.173 131.161L292.736 133.175V134.441L291.989 135.189L285.22 134.211L281.267 134.291L278.359 133.325L276.497 134.809L276.348 137.122L275.762 137.87L273.452 138.837V139.804L271.809 141.45L268.533 140.932L263.017 142.048L261.902 143.395L260.937 146.974L261.087 151.071L262.201 153.235L261.983 155.18L260.489 157.781L256.984 158.379L253.938 161.613L242.584 160.612L241.102 162.108L241.067 162.833L239.321 164.145L239.102 165.204L237.918 165.986L236.413 165.929L234.379 164.674L230.977 159.461L229.713 159.024L228.863 159.081L228.403 160.002L221.117 162.108L218.359 161.981L208.441 158.885L207.717 159.288L206.867 158.621L208.407 154.742L207.913 152.21L203.454 147.48L201.351 147.411L201.293 144.787L200.133 142.796L196.294 140.61L192.617 141.438L189.939 138.043L189.043 137.652L188.146 137.974L187.181 139.712L184.607 141.369L181.263 143.28L177.849 143.993L176.93 145.179L175.482 145.443L172.988 144.2L172.758 142.923L175.321 142.474L178.309 139.263L178.263 136.984L175.448 134.096L175.057 132.749L175.643 130.62L175.252 127.225L173.586 126.062L170.586 126.327L168.828 127.421L166.472 130.24L164.415 129.849L159.589 127.133L155.061 127.789L151.05 125.752L149.28 121.609L150.625 119.261L152.624 117.408L153.544 114.381L153.452 113.288L150.946 109.685L150.441 107.959L151.647 106.946L151.119 105.105L149.016 105.968L147.177 105.83L146.591 102.458L143.569 98.6025L143.304 95.8404L142.454 95.4491L141.27 96.3008L141.603 99.0629H140.879L139.305 96.1051L137.397 95.7714L136.604 96.8877L137.466 99.2586L136.604 100.444L135.294 99.8455L134.915 97.9696L135.467 96.4619L138.248 93.4696L138.064 88.5899L138.765 88.1411L138.845 84.9877L137.271 84.9301L135.823 86.5068L133.961 87.37L133.318 89.6142L132.214 90.5809L128.997 91.6973L129.192 93.0093H131.881L133.134 94.1947L132.869 98.2228L131.513 100.789L132.226 103.229L131.904 104.265L130.755 104.449L129.916 107.142L128.204 106.682L128.077 109.122L126.825 110.698L124.308 112.436L121.481 111.389L119.125 112.379L116.424 111.584L113.93 113.23L113.999 114.738L114.586 114.922L114.206 116.395L114.586 118.156L116.068 119.802L115.769 121.517L113.873 123.415L116.562 126.834L113.735 131.771L112.551 132.231L110.448 131.241L109.736 127.167L107.564 125.717L104.415 127.098L103.496 130.194L102.117 130.056L101.071 129.009L100.807 124.566L99.2321 123.715L98.4392 123.646L97.3934 124.566L96.6924 123.726L93.2103 123.381L89.935 125.487L89.5328 127.593L87.3723 128.387L86.0622 128.215L83.7638 125.257L81.6607 124.071L78.374 123.749L76.0181 125.821L72.8578 125.453L71.9384 123.485L69.3182 121.712L66.8934 118.098L66.0315 117.891L63.2734 117.96L62.5149 118.524L61.745 120.826L60.3889 122.495L59.6994 121.54L59.7339 117.304L58.2169 116.05V113.771L59.4006 110.365L59.0788 103.033L53.6316 94.2983L50.7356 93.6308L48.2418 94.4939L47.15 94.2637L47.127 94.8852L43.3232 95.4146L38.7263 100.605L36.0946 100.996L33.6698 99.811L32.5551 96.6461L27.6939 92.9748L26.3609 93.0438L24.4532 89.8904L22.8788 90.4198L19.3277 87.6577L17.5005 88.7165L16.2478 90.4198L14.7998 90.4774L11.5821 89.4301L9.80078 87.8879L9.86973 83.5836L12.6968 80.9481L13.2254 77.53L18.213 77.1962L20.7068 75.3548L23.7981 74.6988L25.6943 73.3868L28.7857 68.7833L31.5438 67.7936L33.7043 65.4343L36.1981 65.4918L37.5656 62.8678L37.1864 60.451L37.7035 57.6659L39.0941 56.4574L42.5762 54.9498L44.1736 52.9818L44.6103 51.4626L48.1498 48.9537L49.2416 46.1686L50.9079 44.4883L54.459 43.3029L57.3435 43.7633L57.9641 41.9333L58.7915 41.7952L62.469 43.441L64.3652 42.9807L66.043 40.1955L66.1694 37.9513L64.7559 33.8427L66.4682 28.3875L73.6278 31.0806L76.0526 31.0115L78.351 30.1599L79.2129 28.3875L83.8672 25.0615L86.1656 24.3364L87.016 22.495L91.9461 19.0194L95.2214 18.7547L98.1978 16.8788L99.0712 15.866L99.6573 12.2752L102.197 11.0438L107.736 11.3776L109.437 11.7228L112.724 13.7599L117.47 14.0936L120.182 12.2868L124.48 12.1717L127.985 10.5835L129.686 10.6986L135.007 12.8507L138.282 16.1422L150.843 18.9734L158.646 23.0475L161.703 23.9567L165.771 27.0065L170.069 27.1216L171.092 28.376L174.827 27.0065L176.183 24.9694L176.631 23.0475L176.183 18.9734L176.631 16.8212L179.125 12.8507L179.01 11.0438L180.251 10.0195L182.285 10.2497Z" fill="white"/>
<path d="M182.285 10.2497L190.1 11.4927L191.789 12.5054L193.938 15.7969L195.524 16.2458L199.489 15.1179L202.879 17.7189L204.913 17.5002L209.774 20.1012L215.21 19.6524L220.979 22.4835L228.173 28.0308L233.942 27.3517L234.965 23.9567L238.125 22.4835L240.619 19.0769L241.412 18.8583L243.216 20.6651L245.48 19.192L246.388 20.8953L247.974 20.5501L249.778 21.2291L252.456 20.0782L255.019 21.091L258.754 20.7457L267.752 23.1971L269.154 25.119L270.119 29.055L271.947 30.6317L273.613 30.1944L281.473 32.6458L283.841 32.4731L285.323 34.0499L287.852 34.303L288.817 33.2557L289.955 33.3478L291.357 34.3951L300.872 32.1164L304.55 32.6458L305.768 33.2557L306.296 35.7992L306.997 36.5818L307.078 38.9411L308.043 39.4705L306.641 41.8298L302.102 46.5599L302.274 47.1698L306.641 49.4486L307.951 49.5291L309.353 48.3092L310.054 48.4013L312.755 50.9332L315.823 50.2312L316.869 50.7606H320.19L321.581 51.8079L322.109 53.5572L321.765 57.1479L323.856 61.6134L325.695 62.8333H330.326L331.464 63.6274L330.843 68.1734L331.544 69.8421L331.981 75.608L330.935 78.232L329.625 78.3241L327.878 75.9648V74.296L328.844 72.282L328.223 71.0621L325.523 68.7833L321.064 67.8281L318.616 66.1593L316.432 66.8614L316.34 67.8281L319.397 74.8254L321.811 75.8382L322.282 77.3919L323.833 78.9456L327.568 81.443L330.522 81.9033L334.716 81.2818L337.21 81.7537L340.474 83.7792L342.807 82.2141L350.725 81.443L355.241 82.6859L357.252 84.4007H358.965L362.079 80.5108L366.273 79.4174L373.111 79.1067L376.065 78.1745L378.237 75.8382L381.512 74.1234L383.374 73.663L385.856 74.1234L385.235 77.0811L383.833 79.2678L384.305 84.8611L381.661 91.5592L381.351 96.6921L380.42 98.8788L376.375 101.365L375.283 102.93L371.56 103.079L368.756 105.565L362.228 106.509L357.562 109.616L350.575 111.17L349.955 113.506L352.437 117.247L353.219 121.447L349.334 120.826L344.668 122.069L339.531 122.38L337.21 121.919L335.957 124.094L334.096 124.566L332.694 125.809L332.383 127.213L327.718 127.984L326.948 129.538L327.097 131.564L328.189 133.44L333.165 137.168V138.883L329.43 141.841L327.097 145.271L326.476 147.285L324.73 144.96L321.604 144.879L319.294 143.694L315.8 142.865L315.352 136.225L314.904 135.189L313.146 134.291L313.065 131.46L310.767 130.413L309.572 130.631L309.491 132.795L308.078 134.061L307.779 136.225L301.447 142.497L299.734 149.805H298.62L294.448 147.86L292.517 145.409L289.759 143.314V141.818L292.736 138.17L297.804 135.189L298.7 133.773L297.804 130.631L296.16 128.767L295.344 128.917L291.403 130.332L291.173 131.161L292.736 133.175V134.441L291.989 135.189L285.22 134.211L281.267 134.291L278.359 133.325L276.497 134.809L276.348 137.122L275.762 137.87L273.452 138.837V139.804L271.809 141.45L268.533 140.932L263.017 142.048L261.902 143.395L260.937 146.974L261.087 151.071L262.201 153.235L261.983 155.18L260.489 157.781L256.984 158.379L253.938 161.613L242.584 160.612L241.102 162.108L241.067 162.833L239.321 164.145L239.102 165.204L237.918 165.986L236.413 165.929L234.379 164.674L230.977 159.461L229.713 159.024L228.863 159.081L228.403 160.002L221.117 162.108L218.359 161.981L208.441 158.885L207.717 159.288L206.867 158.621L208.407 154.742L207.913 152.21L203.454 147.48L201.351 147.411L201.293 144.787L200.133 142.796L196.294 140.61L192.617 141.438L189.939 138.043L189.043 137.652L188.146 137.974L187.181 139.712L184.607 141.369L181.263 143.28L177.849 143.993L176.93 145.179L175.482 145.443L172.988 144.2L172.758 142.923L175.321 142.474L178.309 139.263L178.263 136.984L175.448 134.096L175.057 132.749L175.643 130.62L175.252 127.225L173.586 126.062L170.586 126.327L168.828 127.421L166.472 130.24L164.415 129.849L159.589 127.133L155.061 127.789L151.05 125.752L149.28 121.609L150.625 119.261L152.624 117.408L153.544 114.381L153.452 113.288L150.946 109.685L150.441 107.959L151.647 106.946L151.119 105.105L149.016 105.968L147.177 105.83L146.591 102.458L143.569 98.6025L143.304 95.8404L142.454 95.4491L141.27 96.3008L141.603 99.0629H140.879L139.305 96.1051L137.397 95.7714L136.604 96.8877L137.466 99.2586L136.604 100.444L135.294 99.8455L134.915 97.9696L135.467 96.4619L138.248 93.4696L138.064 88.5899L138.765 88.1411L138.845 84.9877L137.271 84.9301L135.823 86.5068L133.961 87.37L133.318 89.6142L132.214 90.5809L128.997 91.6973L129.192 93.0093H131.881L133.134 94.1947L132.869 98.2228L131.513 100.789L132.226 103.229L131.904 104.265L130.755 104.449L129.916 107.142L128.204 106.682L128.077 109.122L126.825 110.698L124.308 112.436L121.481 111.389L119.125 112.379L116.424 111.584L113.93 113.23L113.999 114.738L114.586 114.922L114.206 116.395L114.586 118.156L116.068 119.802L115.769 121.517L113.873 123.415L116.562 126.834L113.735 131.771L112.551 132.231L110.448 131.241L109.736 127.167L107.564 125.717L104.415 127.098L103.496 130.194L102.117 130.056L101.071 129.009L100.807 124.566L99.2321 123.715L98.4392 123.646L97.3934 124.566L96.6924 123.726L93.2103 123.381L89.935 125.487L89.5328 127.593L87.3723 128.387L86.0622 128.215L83.7638 125.257L81.6607 124.071L78.374 123.749L76.0181 125.821L72.8578 125.453L71.9384 123.485L69.3182 121.712L66.8934 118.098L66.0315 117.891L63.2734 117.96L62.5149 118.524L61.745 120.826L60.3889 122.495L59.6994 121.54L59.7339 117.304L58.2169 116.05V113.771L59.4006 110.365L59.0788 103.033L53.6316 94.2983L50.7356 93.6308L48.2418 94.4939L47.15 94.2637L47.127 94.8852L43.3232 95.4146L38.7263 100.605L36.0946 100.996L33.6698 99.811L32.5551 96.6461L27.6939 92.9748L26.3609 93.0438L24.4532 89.8904L22.8788 90.4198L19.3277 87.6577L17.5005 88.7165L16.2478 90.4198L14.7998 90.4774L11.5821 89.4301L9.80078 87.8879L9.86973 83.5836L12.6968 80.9481L13.2254 77.53L18.213 77.1962L20.7068 75.3548L23.7981 74.6988L25.6943 73.3868L28.7857 68.7833L31.5438 67.7936L33.7043 65.4343L36.1981 65.4918L37.5656 62.8678L37.1864 60.451L37.7035 57.6659L39.0941 56.4574L42.5762 54.9498L44.1736 52.9818L44.6103 51.4626L48.1498 48.9537L49.2416 46.1686L50.9079 44.4883L54.459 43.3029L57.3435 43.7633L57.9641 41.9333L58.7915 41.7952L62.469 43.441L64.3652 42.9807L66.043 40.1955L66.1694 37.9513L64.7559 33.8427L66.4682 28.3875L73.6278 31.0806L76.0526 31.0115L78.351 30.1599L79.2129 28.3875L83.8672 25.0615L86.1656 24.3364L87.016 22.495L91.9461 19.0194L95.2214 18.7547L98.1978 16.8788L99.0712 15.866L99.6573 12.2752L102.197 11.0438L107.736 11.3776L109.437 11.7228L112.724 13.7599L117.47 14.0936L120.182 12.2868L124.48 12.1717L127.985 10.5835L129.686 10.6986L135.007 12.8507L138.282 16.1422L150.843 18.9734L158.646 23.0475L161.703 23.9567L165.771 27.0065L170.069 27.1216L171.092 28.376L174.827 27.0065L176.183 24.9694L176.631 23.0475L176.183 18.9734L176.631 16.8212L179.125 12.8507L179.01 11.0438L180.251 10.0195L182.285 10.2497Z" stroke="white" stroke-width="0.476939"/>
</g>
<defs>
<filter id="filter0_d_441_11563" x="0.0217628" y="0.232395" width="395.657" height="175.534" filterUnits="userSpaceOnUse" color-interpolation-filters="sRGB">
<feFlood flood-opacity="0" result="BackgroundImageFix"/>
<feColorMatrix in="SourceAlpha" type="matrix" values="0 0 0 0 0 0 0 0 0 0 0 0 0 0 0 0 0 0 127 0" result="hardAlpha"/>
<feOffset/>
<feGaussianBlur stdDeviation="4.76939"/>
<feComposite in2="hardAlpha" operator="out"/>
<feColorMatrix type="matrix" values="0 0 0 0 0 0 0 0 0 0 0 0 0 0 0 0 0 0 0.25 0"/>
<feBlend mode="normal" in2="BackgroundImageFix" result="effect1_dropShadow_441_11563"/>
<feBlend mode="normal" in="SourceGraphic" in2="effect1_dropShadow_441_11563" result="shape"/>
</filter>
</defs>
</svg>
