<svg width="392" height="258" viewBox="0 0 392 258" fill="none" xmlns="http://www.w3.org/2000/svg">
<g filter="url(#filter0_d_441_11564)">
<path d="M158.774 11.3566L159.429 12.542L160.866 12.6686L162.555 13.7159L167.129 11.7594L168.508 10.1251L170.508 12.2888L175.587 13.9806L177.196 15.8565L179.242 15.5803L179.426 18.0892L181.379 18.446L181.644 19.8731L188.596 18.9754L189.573 15.7644L190.47 15.4077L196.353 16.1212L197.146 16.9268L196.078 22.9919L196.882 23.4408L196.526 25.3973L196.974 28.5277L198.939 33.6145L198.663 36.0199L203.214 38.9661V42.085L208.11 43.9609L208.558 44.6745V46.1936L206.777 49.8534L206.421 51.902L205.616 52.9723L204.007 53.0644L201.697 57.0809L201.789 58.0592L205.26 58.9453L209.006 57.4377L211.856 57.5183L213.362 55.8265H215.499L217.89 56.4134L223.153 58.9914L224.486 58.462L229.566 59.1755L230.186 60.6026L231.795 61.5808L234.909 62.0297L236.426 61.0514L237.231 61.2241L238.392 62.2944L241.862 63.4568L243.287 65.1486L247.39 66.311L248.102 67.9222L249.171 68.279L250.86 67.0245L251.389 67.3813L251.929 69.5219L251.481 70.7764L249.251 72.2034L249.171 74.7009L248.539 75.9438L247.298 76.6573L241.678 76.8415L239.633 76.3006L238.748 76.8415L237.139 80.2366L237.851 83.5281L237.311 85.3234L237.668 87.1073L239.276 86.4743L245.873 87.4641L251.837 86.8311L252.826 85.3234L254.607 84.2416L256.652 84.9552L257.894 86.1175L258.698 87.6367L258.974 90.3183L258.25 91.5612L256.204 92.9077L255.4 94.7721L255.676 95.7619L258.434 97.3616L258.79 98.3399L256.917 103.922L256.825 105.97L258.434 106.246L260.307 104.463L261.111 104.635L263.777 108.203L270.73 108.295L278.832 106.96L279.993 107.317L281.51 109.008L283.647 109.538L288.014 106.603L299.3 108.03L304.724 106.96L307.229 105.084L308.734 102.23H309.447L311.056 107.133L308.826 113.554L308.206 114.809L303.575 114.625L305 115.074L306.241 117.042L308.734 126.41L311.768 128.009L313.193 128.366L315.159 127.837L316.584 128.458L317.733 130.507L316.135 133.994L316.043 136.94L315.239 138.54L313.285 140.6L310.872 142.027L311.056 143.811L311.86 144.168L320.41 140.059L331.994 137.734L333.511 138.989L336.178 139.887L334.753 141.578V145.411L337.786 148.184L343.13 147.551L344.107 146.93L349.727 147.736L352.577 147.379L358.817 149.968L361.667 150.498L365.494 147.908L369.597 146.389L370.401 145.411L375.389 144.697L375.917 145.411L377.342 145.503L376.273 148.449L376.814 150.946L377.79 152.466L380.02 154.249L382.146 154.756L381.181 158.692L380.135 159.003L377.423 161.914L371.86 162.639L368.183 166.115H367.068L364.172 163.56L360.564 163.1L357.449 163.491L355.84 163.1L353.933 161.65H352.427L352.025 162.766L349.405 163.618L349.52 164.205L345.532 165.597L343.946 167.761L340.843 167.22L338.901 168.152L337.786 169.476L333.052 169.211L327.673 170.788L325.835 169.993L320.744 170.592L319.169 170.132L319.319 168.612L315.09 168.152L314.17 166.909L310.964 166.38L303.873 169.993L299.736 167.565L297.438 167.634L294.542 169.073L293.163 168.682L291.853 167.761L289.819 167.439L288.968 164.941L286.015 163.491L281.613 163.618L280.958 162.893L279.384 162.962L276.097 166.449L273.982 167.749L271.994 167.416L272.293 168.221L269.604 167.899L268.478 169.602L268.282 172.928L265.524 172.986L265.007 174.562L261.789 175.69L260.272 180.685L260.675 186.727L258.572 187.844L258.916 189.777L257.721 191.135L257.319 192.977L252.067 196.728L252.205 199.813L254.239 202.77L251.745 208.295L252.113 210.47L250.883 212.438L248.918 213.163L247.608 215.925L245.769 216.777L244.057 219.343L242.287 223.613L242.552 227.296L241.506 229.068L239.334 230.714L239.207 231.899L234.932 234.397L234.208 236.503L231.06 237.884H227.577L225.75 241.567L224.233 240.312L224.038 236.169L221.808 234.661L218.326 234.063L216.683 234.258L214.362 236.894L210.811 239.391L203.272 237.941L199.916 240.577L199.066 240.185L197.687 238.01L195.515 237.481L194.469 238.148L193.159 241.302L191.78 242.948L191.906 245.905L190.941 246.792L189.148 245.445L184.815 245.503L184.034 244.26L183.574 244.72L182.655 243.73L179.368 246.032L176.093 246.159L173.588 248.034L172.668 247.804L171.691 241.889L170.37 239.587V238.471L171.485 235.317L171.163 234.063L173.852 230.978L174.702 227.952L171.186 224.729L169.129 223.866L168.117 222.036L167.129 218.158L166.738 210.527L165.888 208.49L163.256 207.178L159.912 208.628L155.12 212.047L149.868 218.158L147.512 219.424L144.938 219.861L143.099 221.185L140.088 224.073L139.629 226.041L137.365 226.536L135.664 228.711L132.906 230.484L128.309 229.298H125.942L121.873 230.817L119.38 230.553L117.208 228.976L114.392 229.563L112.484 229.103L106.738 223.843L103.521 222.393L104.831 222.991L102.004 222.266L100.739 223.371L97.9928 222.197H96.7287L95.1657 223.314L88.236 222.715L86.9719 220.931L84.7309 220.782L83.8461 220.114L82.421 220.482L81.0879 219.067L80.1111 219.585L79.525 219.286L78.9964 216.903L80.5593 213.174L79.9617 211.977L78.6976 210.781L77.2151 210.631L75.204 209.146L72.1471 208.398L69.9176 208.767L67.3779 205.717L64.999 205.636L63.2063 203.472L60.5976 202.586L57.2534 195.865L55.3917 196.245L54.4953 195.716L53.0818 191.688L52.5646 191.17H50.8523L49.2089 189.973L48.7608 186.393L46.3819 183.562L44.2903 182.814L41.9804 180.133L39.7509 179.833L38.4064 175.725L34.9128 174.01L34.568 173.285L36.1195 169.706L38.7626 166.598L41.2564 164.884V163.169L36.2803 159.44L35.1886 157.564L35.0392 155.538L35.8092 153.985L40.475 153.214L40.7853 151.81L42.1873 150.567L44.049 150.095L45.2901 147.92L47.623 148.38L52.76 148.069L57.4143 146.826L61.3101 147.448L60.5286 143.247L58.0348 139.507L58.6669 137.17L65.6541 135.617L70.3199 132.509L76.8474 131.566L79.6514 129.08L83.3749 128.93L84.4666 127.365L88.5118 124.879L89.4427 122.692L89.753 117.56L92.3962 110.861L91.925 105.268L93.327 103.081L93.9476 100.124L91.4653 99.6634L89.5921 100.124L86.3284 101.839L84.1563 104.175L81.2029 105.107L74.3651 105.418L70.1705 106.511L67.0561 110.401H65.3438L63.3212 108.686L58.8163 107.443L50.8868 108.214L48.5539 109.78L45.2901 107.754L42.8078 107.282L38.6132 107.904L35.6598 107.443L31.9248 104.946L30.3734 103.392L29.9023 101.839L27.4889 100.826L24.432 93.8284L24.5239 92.8617L26.7075 92.1597L29.1553 93.8284L33.6027 94.7837L36.3148 97.0624L36.9239 98.2823L35.9701 100.296V101.965L37.7169 104.324L39.027 104.232L40.0728 101.608L39.6361 95.8425L38.935 94.1737L39.5441 89.6277L38.4179 88.8336H33.7866L31.9479 87.6137L29.8448 83.1483L30.201 79.5576L29.6724 77.8082L28.2819 76.7609H24.9606L23.9034 76.2315L20.8465 76.9336L18.1344 74.4016L17.4449 74.3096L16.0428 75.5295L14.7327 75.4489L11.0667 73.7801L10.1934 72.5602L14.7327 67.8301L15.9394 65.3672L19.3295 64.5846L20.2374 65.3672H26.1099L28.2014 64.4465L29.5115 64.7112L31.4652 62.7547L32.7753 64.8378L35.9126 67.715L36.6941 69.5449L38.3834 69.9362L42.8308 69.1536L43.348 69.8096L41.3943 75.4374L43.0837 77.3939L44.5202 76.3466L46.6117 70.0743L47.9218 68.9004L49.4847 68.2444L52.2314 69.027L54.4493 68.6357L55.5411 62.2944L58.6784 60.7177L59.4599 58.7612L58.4141 54.8367L59.0692 53.5362L60.6321 52.2242L62.3329 51.8329L63.3787 50.1296L64.4244 49.7383L64.0337 48.5644L60.2413 46.8611L58.9427 45.6872L61.1607 35.3524L64.6888 36.0084L67.8146 35.7437L70.952 34.7079L73.6985 35.3524L77.353 34.4432L80.0881 34.5698L85.7882 32.5442L89.052 33.0621L92.1778 30.5877L94.9244 27.0545L96.8781 26.1338L101.188 25.6159L103.279 26.1338L104.451 25.2246L103.934 22.2093L102.371 20.1263L101.452 17.6404L98.8432 14.6366L98.4525 12.7952L107.198 12.0126L108.508 11.3566L114.38 12.2773L116.989 10.8387L118.299 11.23L119.598 13.198L122.862 13.0599L126.39 10.574L127.436 11.7594L128.998 12.2773L132.653 11.3566L138.399 13.4512L141.536 12.1507L145.191 12.0126L146.501 10.3208L149.5 12.4039L151.328 11.7594L153.546 12.1507L155.763 11.4947L157.2 10.8387L157.729 9.91797L158.901 10.1827L158.774 11.3566Z" fill="white"/>
<path d="M158.774 11.3566L159.429 12.542L160.866 12.6686L162.555 13.7159L167.129 11.7594L168.508 10.1251L170.508 12.2888L175.587 13.9806L177.196 15.8565L179.242 15.5803L179.426 18.0892L181.379 18.446L181.644 19.8731L188.596 18.9754L189.573 15.7644L190.47 15.4077L196.353 16.1212L197.146 16.9268L196.078 22.9919L196.882 23.4408L196.526 25.3973L196.974 28.5277L198.939 33.6145L198.663 36.0199L203.214 38.9661V42.085L208.11 43.9609L208.558 44.6745V46.1936L206.777 49.8534L206.421 51.902L205.616 52.9723L204.007 53.0644L201.697 57.0809L201.789 58.0592L205.26 58.9453L209.006 57.4377L211.856 57.5183L213.362 55.8265H215.499L217.89 56.4134L223.153 58.9914L224.486 58.462L229.566 59.1755L230.186 60.6026L231.795 61.5808L234.909 62.0297L236.426 61.0514L237.231 61.2241L238.392 62.2944L241.862 63.4568L243.287 65.1486L247.39 66.311L248.102 67.9222L249.171 68.279L250.86 67.0245L251.389 67.3813L251.929 69.5219L251.481 70.7764L249.251 72.2034L249.171 74.7009L248.539 75.9438L247.298 76.6573L241.678 76.8415L239.633 76.3006L238.748 76.8415L237.139 80.2366L237.851 83.5281L237.311 85.3234L237.668 87.1073L239.276 86.4743L245.873 87.4641L251.837 86.8311L252.826 85.3234L254.607 84.2416L256.652 84.9552L257.894 86.1175L258.698 87.6367L258.974 90.3183L258.25 91.5612L256.204 92.9077L255.4 94.7721L255.676 95.7619L258.434 97.3616L258.79 98.3399L256.917 103.922L256.825 105.97L258.434 106.246L260.307 104.463L261.111 104.635L263.777 108.203L270.73 108.295L278.832 106.96L279.993 107.317L281.51 109.008L283.647 109.538L288.014 106.603L299.3 108.03L304.724 106.96L307.229 105.084L308.734 102.23H309.447L311.056 107.133L308.826 113.554L308.206 114.809L303.575 114.625L305 115.074L306.241 117.042L308.734 126.41L311.768 128.009L313.193 128.366L315.159 127.837L316.584 128.458L317.733 130.507L316.135 133.994L316.043 136.94L315.239 138.54L313.285 140.6L310.872 142.027L311.056 143.811L311.86 144.168L320.41 140.059L331.994 137.734L333.511 138.989L336.178 139.887L334.753 141.578V145.411L337.786 148.184L343.13 147.551L344.107 146.93L349.727 147.736L352.577 147.379L358.817 149.968L361.667 150.498L365.494 147.908L369.597 146.389L370.401 145.411L375.389 144.697L375.917 145.411L377.342 145.503L376.273 148.449L376.814 150.946L377.79 152.466L380.02 154.249L382.146 154.756L381.181 158.692L380.135 159.003L377.423 161.914L371.86 162.639L368.183 166.115H367.068L364.172 163.56L360.564 163.1L357.449 163.491L355.84 163.1L353.933 161.65H352.427L352.025 162.766L349.405 163.618L349.52 164.205L345.532 165.597L343.946 167.761L340.843 167.22L338.901 168.152L337.786 169.476L333.052 169.211L327.673 170.788L325.835 169.993L320.744 170.592L319.169 170.132L319.319 168.612L315.09 168.152L314.17 166.909L310.964 166.38L303.873 169.993L299.736 167.565L297.438 167.634L294.542 169.073L293.163 168.682L291.853 167.761L289.819 167.439L288.968 164.941L286.015 163.491L281.613 163.618L280.958 162.893L279.384 162.962L276.097 166.449L273.982 167.749L271.994 167.416L272.293 168.221L269.604 167.899L268.478 169.602L268.282 172.928L265.524 172.986L265.007 174.562L261.789 175.69L260.272 180.685L260.675 186.727L258.572 187.844L258.916 189.777L257.721 191.135L257.319 192.977L252.067 196.728L252.205 199.813L254.239 202.77L251.745 208.295L252.113 210.47L250.883 212.438L248.918 213.163L247.608 215.925L245.769 216.777L244.057 219.343L242.287 223.613L242.552 227.296L241.506 229.068L239.334 230.714L239.207 231.899L234.932 234.397L234.208 236.503L231.06 237.884H227.577L225.75 241.567L224.233 240.312L224.038 236.169L221.808 234.661L218.326 234.063L216.683 234.258L214.362 236.894L210.811 239.391L203.272 237.941L199.916 240.577L199.066 240.185L197.687 238.01L195.515 237.481L194.469 238.148L193.159 241.302L191.78 242.948L191.906 245.905L190.941 246.792L189.148 245.445L184.815 245.503L184.034 244.26L183.574 244.72L182.655 243.73L179.368 246.032L176.093 246.159L173.588 248.034L172.668 247.804L171.691 241.889L170.37 239.587V238.471L171.485 235.317L171.163 234.063L173.852 230.978L174.702 227.952L171.186 224.729L169.129 223.866L168.117 222.036L167.129 218.158L166.738 210.527L165.888 208.49L163.256 207.178L159.912 208.628L155.12 212.047L149.868 218.158L147.512 219.424L144.938 219.861L143.099 221.185L140.088 224.073L139.629 226.041L137.365 226.536L135.664 228.711L132.906 230.484L128.309 229.298H125.942L121.873 230.817L119.38 230.553L117.208 228.976L114.392 229.563L112.484 229.103L106.738 223.843L103.521 222.393L104.831 222.991L102.004 222.266L100.739 223.371L97.9928 222.197H96.7287L95.1657 223.314L88.236 222.715L86.9719 220.931L84.7309 220.782L83.8461 220.114L82.421 220.482L81.0879 219.067L80.1111 219.585L79.525 219.286L78.9964 216.903L80.5593 213.174L79.9617 211.977L78.6976 210.781L77.2151 210.631L75.204 209.146L72.1471 208.398L69.9176 208.767L67.3779 205.717L64.999 205.636L63.2063 203.472L60.5976 202.586L57.2534 195.865L55.3917 196.245L54.4953 195.716L53.0818 191.688L52.5646 191.17H50.8523L49.2089 189.973L48.7608 186.393L46.3819 183.562L44.2903 182.814L41.9804 180.133L39.7509 179.833L38.4064 175.725L34.9128 174.01L34.568 173.285L36.1195 169.706L38.7626 166.598L41.2564 164.884V163.169L36.2803 159.44L35.1886 157.564L35.0392 155.538L35.8092 153.985L40.475 153.214L40.7853 151.81L42.1873 150.567L44.049 150.095L45.2901 147.92L47.623 148.38L52.76 148.069L57.4143 146.826L61.3101 147.448L60.5286 143.247L58.0348 139.507L58.6669 137.17L65.6541 135.617L70.3199 132.509L76.8474 131.566L79.6514 129.08L83.3749 128.93L84.4666 127.365L88.5118 124.879L89.4427 122.692L89.753 117.56L92.3962 110.861L91.925 105.268L93.327 103.081L93.9476 100.124L91.4653 99.6634L89.5921 100.124L86.3284 101.839L84.1563 104.175L81.2029 105.107L74.3651 105.418L70.1705 106.511L67.0561 110.401H65.3438L63.3212 108.686L58.8163 107.443L50.8868 108.214L48.5539 109.78L45.2901 107.754L42.8078 107.282L38.6132 107.904L35.6598 107.443L31.9248 104.946L30.3734 103.392L29.9023 101.839L27.4889 100.826L24.432 93.8284L24.5239 92.8617L26.7075 92.1597L29.1553 93.8284L33.6027 94.7837L36.3148 97.0624L36.9239 98.2823L35.9701 100.296V101.965L37.7169 104.324L39.027 104.232L40.0728 101.608L39.6361 95.8425L38.935 94.1737L39.5441 89.6277L38.4179 88.8336H33.7866L31.9479 87.6137L29.8448 83.1483L30.201 79.5576L29.6724 77.8082L28.2819 76.7609H24.9606L23.9034 76.2315L20.8465 76.9336L18.1344 74.4016L17.4449 74.3096L16.0428 75.5295L14.7327 75.4489L11.0667 73.7801L10.1934 72.5602L14.7327 67.8301L15.9394 65.3672L19.3295 64.5846L20.2374 65.3672H26.1099L28.2014 64.4465L29.5115 64.7112L31.4652 62.7547L32.7753 64.8378L35.9126 67.715L36.6941 69.5449L38.3834 69.9362L42.8308 69.1536L43.348 69.8096L41.3943 75.4374L43.0837 77.3939L44.5202 76.3466L46.6117 70.0743L47.9218 68.9004L49.4847 68.2444L52.2314 69.027L54.4493 68.6357L55.5411 62.2944L58.6784 60.7177L59.4599 58.7612L58.4141 54.8367L59.0692 53.5362L60.6321 52.2242L62.3329 51.8329L63.3787 50.1296L64.4244 49.7383L64.0337 48.5644L60.2413 46.8611L58.9427 45.6872L61.1607 35.3524L64.6888 36.0084L67.8146 35.7437L70.952 34.7079L73.6985 35.3524L77.353 34.4432L80.0881 34.5698L85.7882 32.5442L89.052 33.0621L92.1778 30.5877L94.9244 27.0545L96.8781 26.1338L101.188 25.6159L103.279 26.1338L104.451 25.2246L103.934 22.2093L102.371 20.1263L101.452 17.6404L98.8432 14.6366L98.4525 12.7952L107.198 12.0126L108.508 11.3566L114.38 12.2773L116.989 10.8387L118.299 11.23L119.598 13.198L122.862 13.0599L126.39 10.574L127.436 11.7594L128.998 12.2773L132.653 11.3566L138.399 13.4512L141.536 12.1507L145.191 12.0126L146.501 10.3208L149.5 12.4039L151.328 11.7594L153.546 12.1507L155.763 11.4947L157.2 10.8387L157.729 9.91797L158.901 10.1827L158.774 11.3566Z" stroke="white" stroke-width="0.476939"/>
</g>
<defs>
<filter id="filter0_d_441_11564" x="0.345371" y="0.107822" width="391.628" height="257.724" filterUnits="userSpaceOnUse" color-interpolation-filters="sRGB">
<feFlood flood-opacity="0" result="BackgroundImageFix"/>
<feColorMatrix in="SourceAlpha" type="matrix" values="0 0 0 0 0 0 0 0 0 0 0 0 0 0 0 0 0 0 127 0" result="hardAlpha"/>
<feOffset/>
<feGaussianBlur stdDeviation="4.76939"/>
<feComposite in2="hardAlpha" operator="out"/>
<feColorMatrix type="matrix" values="0 0 0 0 0 0 0 0 0 0 0 0 0 0 0 0 0 0 0.25 0"/>
<feBlend mode="normal" in2="BackgroundImageFix" result="effect1_dropShadow_441_11564"/>
<feBlend mode="normal" in="SourceGraphic" in2="effect1_dropShadow_441_11564" result="shape"/>
</filter>
</defs>
</svg>
