<svg width="301" height="234" viewBox="0 0 301 234" fill="none" xmlns="http://www.w3.org/2000/svg">
<g filter="url(#filter0_d_441_11565)">
<path d="M283.568 79.3714L283.522 80.0159L282.924 80.0389V84.3201L280.821 86.4147L280.959 87.2088L286.165 91.8699L287.843 94.7586L290.463 96.577L290.245 98.1537L289.13 98.2573L287.027 99.6383L285.556 99.4311L283.062 97.1754L282.177 97.0028L274.075 97.1754L273.363 97.6243L273.604 100.709L270.582 105.151L269.272 105.565L268.41 104.484L266.18 104.173L264.02 104.633L259.549 111.596L255.608 113.863L252.988 117.684L248.057 121.424L246.46 123.358L244.001 124.382H242.828L240.53 122.679L238.944 123.415L236.715 120.768L226.866 123.139L225.429 123.864L225.361 124.52L223.786 125.763L222.016 126.293L219.258 124.52L218.534 124.716L215.397 130.137L210.915 131.621L210.858 132.807L213.731 134.05L214.006 135.891L209.605 141.289L208.754 143.418L209.674 148.32L207.697 150.093L206.651 149.966L204.353 151.739L202.848 158.045L203.365 161.072L207.111 162.258L208.605 163.8L211.053 170.544L212.099 175.274L211.834 179.083H209.478L208.95 179.739L208.295 182.801L206.525 184.182L207.111 185.689L206.261 187.6L206.192 191.087L204.422 192.008L194.7 193.458L191.091 193.251L186.828 192.008L184.851 193.124L181.783 192.928L180.139 193.976L177.576 192.468L172.325 192.595L169.44 194.379L166.153 194.827L163.464 196.277L162.809 197.267L162.936 199.834L161.361 201.997L155.523 201.675L154.213 203.378L149.478 205.093L147.054 204.955L143.388 203.309L141.549 203.378L137.021 205.151L133.608 204.368L129.861 205.68L127.632 203.977L126.253 204.034L123.368 205.945L120.277 204.564L116.542 206.014L113.52 203.574L108.992 201.928L102.556 201.008L101.051 202.527L100.327 204.437L99.0167 205.289L97.4997 205.358L96.1896 202.722L92.8339 202.527L90.7998 203.643L90.9377 205.876L90.478 206.279H85.9502L82.8588 207.717L79.5835 207.982L78.4573 208.972L77.3196 210.41L75.6762 215.083L71.3667 223.173L70.229 223.369L69.4475 222.713L68.4592 218.179L67.6663 217.315L66.2872 217.189L65.3679 214.622L60.7136 214.289L59.1966 213.633L58.1508 212.39L56.5764 205.093L55.7835 204.299L53.8183 204.437L50.9338 206.14H49.5547L45.2797 209.363L43.6478 211.711L37.3387 212.447L36.4193 213.241L34.707 212.781L32.8338 210.767L30.9031 206.727L31.5007 204.898L34.1898 202.389L35.3735 199.891L33.0866 193.838L31.6961 193.09L23.0885 195.069L19.0203 194.079L18.1009 195.127L15.4118 194.402L13.3777 189.602L13.2398 187.899L15.2854 184.412L15.3888 181.523L14.6763 180.05L10.6426 177.495L11.7573 175.953L12.194 172.627L15.2969 167.16L16.2622 166.516L22.7897 165.871L24.1803 165.02L26.1109 161.268L30.7078 161.901L31.2479 163.731L32.535 164.697L34.4542 165.549L38.3155 166.09L40.9817 168.334L44.6247 167.805L47.7275 168.231L51.7957 171.442L56.1857 171.557L58.0129 173.49L62.1845 171.557L64.1152 171.338L67.8616 171.66L70.3209 173.053L73.9639 171.982L75.0327 171.131L78.986 170.164L81.6636 166.942L84.4447 166.619L85.3066 165.549L91.5123 163.512L94.2934 161.694L94.6152 159.438L95.6839 158.69L94.937 155.79L92.3742 152.682L90.6619 151.508L91.8341 150.219L90.6619 149.253L90.3401 148.182L88.5129 147.434L87.5591 147.756L86.2719 149.368H84.7665L82.9507 147.008L80.6983 141.323L77.7103 139.39L73.2054 138.538L73.102 137.03L74.9178 132.427L74.8143 131.034L73.3204 128.882L74.2857 125.671L73.849 124.486L72.7802 123.738L69.2522 122.564L72.6768 119.56V118.064L72.1367 116.556L70.8496 115.382L65.931 113.449L65.184 112.586L68.2868 110.341V109.478L66.5745 107.338L67.7467 102.515L67.3215 101.227L66.2527 100.375H64.6438L57.2545 102.412L53.3357 104.288L49.3824 101.836L48.6584 101.042L48.8537 100.524L52.1635 96.623L53.6459 96.3123L55.8754 93.3545L55.4157 91.7778L57.4498 89.5451L57.852 86.8405L61.587 86.9786L61.7249 85.9199L64.6898 84.0784L65.2299 83.2038L64.8162 82.1795L65.9999 81.8457L67.5743 82.8355H70.7921L71.0564 85.9199L73.2859 88.095L74.5385 88.682L75.32 88.0259L76.8369 88.095L79.3997 90.063L80.5719 91.7778L81.6866 92.1001L82.0888 93.0208L84.5137 92.3648L83.9276 89.5451L84.1919 88.2216L86.157 85.9083L86.226 81.5235L85.8008 80.2345L83.33 79.8087L83.6632 78.0363L84.5137 77.1847L82.5485 72.7768L79.9168 71.2692L80.5144 70.1413L82.8703 70.2104L83.3989 68.369L84.5826 68.7603L87.5016 72.4431L88.1566 75.0786L89.9264 76.5862L91.0411 76.1949L91.1676 74.2845L92.2248 73.8241L93.4085 75.9993L99.1775 78.1054L101.614 80.0043L103.579 80.269L105.751 79.544L106.601 76.5862L106.67 71.6605L107.785 71.5914L108.636 72.7078L111.784 72.7883L113.163 71.6605L113.037 70.1413L114.68 64.7552L112.899 62.9138L113.037 62.0622L114.221 61.3371L115.462 62.7872L116.577 62.6491L120.518 61.1415L122.024 57.6543L127.528 56.2042L128.138 55.1569L130.436 53.7759L133.918 52.5905L140.423 51.6697L142.457 51.0138L143.905 49.7018L145.743 46.2146L144.847 43.6136L147.892 40.3796L151.398 39.7812L152.892 37.1802L153.11 35.2352L151.995 33.0716L151.846 28.9744L152.811 25.3952L153.926 24.0487L159.442 22.9323L162.717 23.4502L164.361 21.8045V20.8378L166.671 19.871L167.257 19.1229L167.406 16.8097L169.268 15.325L172.175 16.2918L176.128 16.2112L182.897 17.1895L183.644 16.4414V15.1754L182.081 13.1614L182.311 12.3328L187.069 10.7676L189.31 13.5297L189.609 15.7739L188.712 17.1895L183.644 20.1702L180.668 23.8185V25.3147L183.426 27.4093L185.357 29.8606L189.528 31.8056H190.643L191.172 31.1381L191.689 25.9131L193.102 23.3006L198.687 18.2253L198.986 16.0616L200.4 14.7956L200.48 12.632L203.158 12.7816L203.985 13.4606L204.054 16.2918L205.812 17.1895L206.261 18.2253L206.709 24.8658L210.202 25.6945L212.512 26.8799L215.638 26.9604L217.73 30.0102L221.223 31.725L222.568 35.8337L224.809 36.1329L227.107 38.8144L229.199 39.5625L231.578 42.3937L232.026 45.9729L233.669 47.1698H235.382L235.899 47.6877L237.312 51.7158L238.209 52.2452L240.07 51.8654L243.426 58.5865L246.035 59.4727L247.816 61.6363L250.206 61.7169L252.735 64.7667L254.964 64.3984L261.526 66.7808L263.388 69.1746L261.825 72.9034L262.342 75.2857L262.94 75.585L263.905 75.0671L265.25 76.4827L266.663 76.1144L267.559 76.7819L269.789 76.9315L271.053 78.7154L277.983 79.3138L279.546 78.1974H280.81L283.568 79.3714Z" fill="white"/>
<path d="M283.568 79.3714L283.522 80.0159L282.924 80.0389V84.3201L280.821 86.4147L280.959 87.2088L286.165 91.8699L287.843 94.7586L290.463 96.577L290.245 98.1537L289.13 98.2573L287.027 99.6383L285.556 99.4311L283.062 97.1754L282.177 97.0028L274.075 97.1754L273.363 97.6243L273.604 100.709L270.582 105.151L269.272 105.565L268.41 104.484L266.18 104.173L264.02 104.633L259.549 111.596L255.608 113.863L252.988 117.684L248.057 121.424L246.46 123.358L244.001 124.382H242.828L240.53 122.679L238.944 123.415L236.715 120.768L226.866 123.139L225.429 123.864L225.361 124.52L223.786 125.763L222.016 126.293L219.258 124.52L218.534 124.716L215.397 130.137L210.915 131.621L210.858 132.807L213.731 134.05L214.006 135.891L209.605 141.289L208.754 143.418L209.674 148.32L207.697 150.093L206.651 149.966L204.353 151.739L202.848 158.045L203.365 161.072L207.111 162.258L208.605 163.8L211.053 170.544L212.099 175.274L211.834 179.083H209.478L208.95 179.739L208.295 182.801L206.525 184.182L207.111 185.689L206.261 187.6L206.192 191.087L204.422 192.008L194.7 193.458L191.091 193.251L186.828 192.008L184.851 193.124L181.783 192.928L180.139 193.976L177.576 192.468L172.325 192.595L169.44 194.379L166.153 194.827L163.464 196.277L162.809 197.267L162.936 199.834L161.361 201.997L155.523 201.675L154.213 203.378L149.478 205.093L147.054 204.955L143.388 203.309L141.549 203.378L137.021 205.151L133.608 204.368L129.861 205.68L127.632 203.977L126.253 204.034L123.368 205.945L120.277 204.564L116.542 206.014L113.52 203.574L108.992 201.928L102.556 201.008L101.051 202.527L100.327 204.437L99.0167 205.289L97.4997 205.358L96.1896 202.722L92.8339 202.527L90.7998 203.643L90.9377 205.876L90.478 206.279H85.9502L82.8588 207.717L79.5835 207.982L78.4573 208.972L77.3196 210.41L75.6762 215.083L71.3667 223.173L70.229 223.369L69.4475 222.713L68.4592 218.179L67.6663 217.315L66.2872 217.189L65.3679 214.622L60.7136 214.289L59.1966 213.633L58.1508 212.39L56.5764 205.093L55.7835 204.299L53.8183 204.437L50.9338 206.14H49.5547L45.2797 209.363L43.6478 211.711L37.3387 212.447L36.4193 213.241L34.707 212.781L32.8338 210.767L30.9031 206.727L31.5007 204.898L34.1898 202.389L35.3735 199.891L33.0866 193.838L31.6961 193.09L23.0885 195.069L19.0203 194.079L18.1009 195.127L15.4118 194.402L13.3777 189.602L13.2398 187.899L15.2854 184.412L15.3888 181.523L14.6763 180.05L10.6426 177.495L11.7573 175.953L12.194 172.627L15.2969 167.16L16.2622 166.516L22.7897 165.871L24.1803 165.02L26.1109 161.268L30.7078 161.901L31.2479 163.731L32.535 164.697L34.4542 165.549L38.3155 166.09L40.9817 168.334L44.6247 167.805L47.7275 168.231L51.7957 171.442L56.1857 171.557L58.0129 173.49L62.1845 171.557L64.1152 171.338L67.8616 171.66L70.3209 173.053L73.9639 171.982L75.0327 171.131L78.986 170.164L81.6636 166.942L84.4447 166.619L85.3066 165.549L91.5123 163.512L94.2934 161.694L94.6152 159.438L95.6839 158.69L94.937 155.79L92.3742 152.682L90.6619 151.508L91.8341 150.219L90.6619 149.253L90.3401 148.182L88.5129 147.434L87.5591 147.756L86.2719 149.368H84.7665L82.9507 147.008L80.6983 141.323L77.7103 139.39L73.2054 138.538L73.102 137.03L74.9178 132.427L74.8143 131.034L73.3204 128.882L74.2857 125.671L73.849 124.486L72.7802 123.738L69.2522 122.564L72.6768 119.56V118.064L72.1367 116.556L70.8496 115.382L65.931 113.449L65.184 112.586L68.2868 110.341V109.478L66.5745 107.338L67.7467 102.515L67.3215 101.227L66.2527 100.375H64.6438L57.2545 102.412L53.3357 104.288L49.3824 101.836L48.6584 101.042L48.8537 100.524L52.1635 96.623L53.6459 96.3123L55.8754 93.3545L55.4157 91.7778L57.4498 89.5451L57.852 86.8405L61.587 86.9786L61.7249 85.9199L64.6898 84.0784L65.2299 83.2038L64.8162 82.1795L65.9999 81.8457L67.5743 82.8355H70.7921L71.0564 85.9199L73.2859 88.095L74.5385 88.682L75.32 88.0259L76.8369 88.095L79.3997 90.063L80.5719 91.7778L81.6866 92.1001L82.0888 93.0208L84.5137 92.3648L83.9276 89.5451L84.1919 88.2216L86.157 85.9083L86.226 81.5235L85.8008 80.2345L83.33 79.8087L83.6632 78.0363L84.5137 77.1847L82.5485 72.7768L79.9168 71.2692L80.5144 70.1413L82.8703 70.2104L83.3989 68.369L84.5826 68.7603L87.5016 72.4431L88.1566 75.0786L89.9264 76.5862L91.0411 76.1949L91.1676 74.2845L92.2248 73.8241L93.4085 75.9993L99.1775 78.1054L101.614 80.0043L103.579 80.269L105.751 79.544L106.601 76.5862L106.67 71.6605L107.785 71.5914L108.636 72.7078L111.784 72.7883L113.163 71.6605L113.037 70.1413L114.68 64.7552L112.899 62.9138L113.037 62.0622L114.221 61.3371L115.462 62.7872L116.577 62.6491L120.518 61.1415L122.024 57.6543L127.528 56.2042L128.138 55.1569L130.436 53.7759L133.918 52.5905L140.423 51.6697L142.457 51.0138L143.905 49.7018L145.743 46.2146L144.847 43.6136L147.892 40.3796L151.398 39.7812L152.892 37.1802L153.11 35.2352L151.995 33.0716L151.846 28.9744L152.811 25.3952L153.926 24.0487L159.442 22.9323L162.717 23.4502L164.361 21.8045V20.8378L166.671 19.871L167.257 19.1229L167.406 16.8097L169.268 15.325L172.175 16.2918L176.128 16.2112L182.897 17.1895L183.644 16.4414V15.1754L182.081 13.1614L182.311 12.3328L187.069 10.7676L189.31 13.5297L189.609 15.7739L188.712 17.1895L183.644 20.1702L180.668 23.8185V25.3147L183.426 27.4093L185.357 29.8606L189.528 31.8056H190.643L191.172 31.1381L191.689 25.9131L193.102 23.3006L198.687 18.2253L198.986 16.0616L200.4 14.7956L200.48 12.632L203.158 12.7816L203.985 13.4606L204.054 16.2918L205.812 17.1895L206.261 18.2253L206.709 24.8658L210.202 25.6945L212.512 26.8799L215.638 26.9604L217.73 30.0102L221.223 31.725L222.568 35.8337L224.809 36.1329L227.107 38.8144L229.199 39.5625L231.578 42.3937L232.026 45.9729L233.669 47.1698H235.382L235.899 47.6877L237.312 51.7158L238.209 52.2452L240.07 51.8654L243.426 58.5865L246.035 59.4727L247.816 61.6363L250.206 61.7169L252.735 64.7667L254.964 64.3984L261.526 66.7808L263.388 69.1746L261.825 72.9034L262.342 75.2857L262.94 75.585L263.905 75.0671L265.25 76.4827L266.663 76.1144L267.559 76.7819L269.789 76.9315L271.053 78.7154L277.983 79.3138L279.546 78.1974H280.81L283.568 79.3714Z" stroke="white" stroke-width="0.476939"/>
</g>
<defs>
<filter id="filter0_d_441_11565" x="0.761997" y="0.950901" width="299.496" height="232.211" filterUnits="userSpaceOnUse" color-interpolation-filters="sRGB">
<feFlood flood-opacity="0" result="BackgroundImageFix"/>
<feColorMatrix in="SourceAlpha" type="matrix" values="0 0 0 0 0 0 0 0 0 0 0 0 0 0 0 0 0 0 127 0" result="hardAlpha"/>
<feOffset/>
<feGaussianBlur stdDeviation="4.76939"/>
<feComposite in2="hardAlpha" operator="out"/>
<feColorMatrix type="matrix" values="0 0 0 0 0 0 0 0 0 0 0 0 0 0 0 0 0 0 0.25 0"/>
<feBlend mode="normal" in2="BackgroundImageFix" result="effect1_dropShadow_441_11565"/>
<feBlend mode="normal" in="SourceGraphic" in2="effect1_dropShadow_441_11565" result="shape"/>
</filter>
</defs>
</svg>
