<svg width="251" height="107" viewBox="0 0 251 107" fill="none" xmlns="http://www.w3.org/2000/svg">
<g filter="url(#filter0_d_441_11566)">
<path d="M99.8307 12.9141L101.497 13.6391L103.405 15.5496L109.243 16.8616L111.277 19.359L113.311 20.2222L117.586 20.5444L120.401 18.634L125.918 18.3117L134.985 21.0393L142.535 25.1134L144.891 27.2885L146.914 28.2092L147.902 27.4151L154.993 27.0238L162.279 30.6376L164.439 30.8333L167.002 32.2143L172.323 39.8446L176.655 40.5697L178.034 41.0876L178.62 42.0083L180.654 42.6067L185.056 43.1246L188.032 42.25L190.308 42.929L197.536 42.0773L203.443 44.3791L211.258 45.2307L212.235 47.0031L212.798 52.7229L215.958 54.2421L225.508 55.8879L226.565 55.8188L228.76 54.3917L230.001 55.0247L230.909 54.6794L231.587 52.7575L232.265 48.3381L233.851 47.9928L235.092 49.2473L235.885 51.3994L237.126 51.6181L238.597 50.3751L239.839 50.824L241.195 52.1935V54.3457L240.413 56.7165L237.241 60.5719L237.012 64.1972L235.656 65.7854L227.174 68.7316L222.083 67.0283L217.326 67.3736L214.28 70.0897L209.523 68.8467L205.454 70.3199L203.753 69.6293L202.512 69.8595L197.421 74.2789L192.445 72.6907L191.537 73.4848L191.204 79.3773L192.779 81.5294L196.514 82.8874L195.95 86.0639L196.514 87.9858L193.686 89.2288L191.882 88.5497L190.296 88.895L189.388 87.1917L187.124 88.6648L185.32 86.8579L184.527 87.0766L182.033 90.4832L178.873 91.9563L177.85 95.3514L173.667 96.0304H172.081L164.887 90.4832L159.118 87.6521L153.683 88.1009L148.821 85.4999L146.787 85.7186L143.397 83.1176L139.432 84.2455L137.846 83.7966L135.697 80.5051L132.077 78.8133L128.917 78.9284L124.159 78.0192L122.918 79.0435L123.033 80.8504L120.539 84.8209L120.091 86.973L120.539 91.0471L120.091 92.9691L118.735 95.0062L115 96.3757L113.977 95.1213L109.679 95.0062L105.611 91.9563L102.554 91.0471L94.7512 86.973L82.1903 84.1419L78.9151 80.8504L73.5943 78.6982L71.9049 78.5832L68.3884 80.1714L64.0903 80.2864L61.3782 82.0933H58.781L56.632 81.7596L53.3452 79.7225L51.6444 79.3773L46.1052 79.0435L43.577 80.2749L41.4969 77.5474L39.4628 77.2136L37.1644 75.706L35.1303 73.4042L31.1885 71.0334L25.5459 70.4464L24.3622 70.8377L22.1902 73.6689L20.1561 74.5896L18.5817 74.3249L16.4787 72.9439L14.3756 73.9911L13.1345 73.9336L12.4794 71.4362L11.0314 70.3774L10.4453 68.2137L12.6058 62.6205L14.8353 62.1601L14.9157 61.0553L16.4212 60.3878L18.1565 58.5234L17.7313 57.361L16.0879 56.3827L16.042 55.1858L19.1103 53.1603L20.294 48.2921L22.1328 48.0274L26.4653 50.4557L28.304 50.2601L28.4994 48.0964L27.9707 47.1067L25.6034 43.6886L22.6499 40.8574L22.1328 39.6144L22.5924 37.8996L23.9025 36.3229L25.4769 35.9316L31.6482 37.048L36.245 35.736L36.3714 27.4151L39.3939 26.7246L41.7612 24.6185L43.6574 21.3385L43.9907 17.978L45.3697 17.5867L48.7139 18.4383L51.1502 17.978L54.5634 14.6289L57.9076 14.5598L59.1602 15.2158L61.1943 15.2849L66.1129 13.6391L69.0434 15.8949L72.1577 16.9307L73.3759 15.1583L75.8697 14.0995L76.7201 12.5918L81.3859 13.0522L89.6602 10.0254L96.2911 11.1417L99.8307 12.9141Z" fill="white"/>
<path d="M99.8307 12.9141L101.497 13.6391L103.405 15.5496L109.243 16.8616L111.277 19.359L113.311 20.2222L117.586 20.5444L120.401 18.634L125.918 18.3117L134.985 21.0393L142.535 25.1134L144.891 27.2885L146.914 28.2092L147.902 27.4151L154.993 27.0238L162.279 30.6376L164.439 30.8333L167.002 32.2143L172.323 39.8446L176.655 40.5697L178.034 41.0876L178.62 42.0083L180.654 42.6067L185.056 43.1246L188.032 42.25L190.308 42.929L197.536 42.0773L203.443 44.3791L211.258 45.2307L212.235 47.0031L212.798 52.7229L215.958 54.2421L225.508 55.8879L226.565 55.8188L228.76 54.3917L230.001 55.0247L230.909 54.6794L231.587 52.7575L232.265 48.3381L233.851 47.9928L235.092 49.2473L235.885 51.3994L237.126 51.6181L238.597 50.3751L239.839 50.824L241.195 52.1935V54.3457L240.413 56.7165L237.241 60.5719L237.012 64.1972L235.656 65.7854L227.174 68.7316L222.083 67.0283L217.326 67.3736L214.28 70.0897L209.523 68.8467L205.454 70.3199L203.753 69.6293L202.512 69.8595L197.421 74.2789L192.445 72.6907L191.537 73.4848L191.204 79.3773L192.779 81.5294L196.514 82.8874L195.95 86.0639L196.514 87.9858L193.686 89.2288L191.882 88.5497L190.296 88.895L189.388 87.1917L187.124 88.6648L185.32 86.8579L184.527 87.0766L182.033 90.4832L178.873 91.9563L177.85 95.3514L173.667 96.0304H172.081L164.887 90.4832L159.118 87.6521L153.683 88.1009L148.821 85.4999L146.787 85.7186L143.397 83.1176L139.432 84.2455L137.846 83.7966L135.697 80.5051L132.077 78.8133L128.917 78.9284L124.159 78.0192L122.918 79.0435L123.033 80.8504L120.539 84.8209L120.091 86.973L120.539 91.0471L120.091 92.9691L118.735 95.0062L115 96.3757L113.977 95.1213L109.679 95.0062L105.611 91.9563L102.554 91.0471L94.7512 86.973L82.1903 84.1419L78.9151 80.8504L73.5943 78.6982L71.9049 78.5832L68.3884 80.1714L64.0903 80.2864L61.3782 82.0933H58.781L56.632 81.7596L53.3452 79.7225L51.6444 79.3773L46.1052 79.0435L43.577 80.2749L41.4969 77.5474L39.4628 77.2136L37.1644 75.706L35.1303 73.4042L31.1885 71.0334L25.5459 70.4464L24.3622 70.8377L22.1902 73.6689L20.1561 74.5896L18.5817 74.3249L16.4787 72.9439L14.3756 73.9911L13.1345 73.9336L12.4794 71.4362L11.0314 70.3774L10.4453 68.2137L12.6058 62.6205L14.8353 62.1601L14.9157 61.0553L16.4212 60.3878L18.1565 58.5234L17.7313 57.361L16.0879 56.3827L16.042 55.1858L19.1103 53.1603L20.294 48.2921L22.1328 48.0274L26.4653 50.4557L28.304 50.2601L28.4994 48.0964L27.9707 47.1067L25.6034 43.6886L22.6499 40.8574L22.1328 39.6144L22.5924 37.8996L23.9025 36.3229L25.4769 35.9316L31.6482 37.048L36.245 35.736L36.3714 27.4151L39.3939 26.7246L41.7612 24.6185L43.6574 21.3385L43.9907 17.978L45.3697 17.5867L48.7139 18.4383L51.1502 17.978L54.5634 14.6289L57.9076 14.5598L59.1602 15.2158L61.1943 15.2849L66.1129 13.6391L69.0434 15.8949L72.1577 16.9307L73.3759 15.1583L75.8697 14.0995L76.7201 12.5918L81.3859 13.0522L89.6602 10.0254L96.2911 11.1417L99.8307 12.9141Z" stroke="white" stroke-width="0.476939"/>
</g>
<defs>
<filter id="filter0_d_441_11566" x="0.655918" y="0.24094" width="250.316" height="105.956" filterUnits="userSpaceOnUse" color-interpolation-filters="sRGB">
<feFlood flood-opacity="0" result="BackgroundImageFix"/>
<feColorMatrix in="SourceAlpha" type="matrix" values="0 0 0 0 0 0 0 0 0 0 0 0 0 0 0 0 0 0 127 0" result="hardAlpha"/>
<feOffset/>
<feGaussianBlur stdDeviation="4.76939"/>
<feComposite in2="hardAlpha" operator="out"/>
<feColorMatrix type="matrix" values="0 0 0 0 0 0 0 0 0 0 0 0 0 0 0 0 0 0 0.25 0"/>
<feBlend mode="normal" in2="BackgroundImageFix" result="effect1_dropShadow_441_11566"/>
<feBlend mode="normal" in="SourceGraphic" in2="effect1_dropShadow_441_11566" result="shape"/>
</filter>
</defs>
</svg>
