<svg width="404" height="219" viewBox="0 0 404 219" fill="none" xmlns="http://www.w3.org/2000/svg">
<g filter="url(#filter0_d_441_11567)">
<path d="M224.145 208.755L222.019 208.249L219.79 206.465L218.813 204.946L218.273 202.449L219.342 199.502L217.917 199.41L217.388 198.697L212.401 199.41L211.596 200.389L207.493 201.908L203.667 204.497L200.817 203.968L194.576 201.378L191.726 201.735L186.107 200.929L185.13 201.551L179.786 202.184L176.752 199.41V195.578L178.177 193.886L175.511 192.988L173.994 191.734L162.41 194.059L153.86 198.167L153.056 197.811L152.872 196.027L155.285 194.6L157.239 192.54L158.043 190.94L158.135 187.994L159.732 184.506L158.583 182.458L157.158 181.836L155.193 182.366L153.768 182.009L150.734 180.409L148.24 171.041L146.999 169.073L145.574 168.624L150.206 168.809L150.826 167.554L153.056 161.132L151.447 156.229H150.734L149.229 159.084L146.723 160.96L141.299 162.03L130.014 160.603L125.647 163.537L123.509 163.008L121.992 161.316L120.832 160.96L112.73 162.295L105.777 162.202L103.111 158.635L102.307 158.462L100.433 160.246L98.8244 159.97L98.9164 157.921L100.79 152.339L100.433 151.361L97.6752 149.761L97.3994 148.772L98.2039 146.907L100.249 145.561L100.973 144.318L100.698 141.636L99.8932 140.117L98.652 138.955L96.6065 138.241L94.8252 139.323L93.8368 140.831L87.8724 141.464L81.276 140.474L79.6672 141.107L79.3109 139.323L79.851 137.528L79.1385 134.236L80.7474 130.841L81.6323 130.3L83.6779 130.841L89.2975 130.657L90.5386 129.943L91.1707 128.7L91.2511 126.203L93.4806 124.776L93.9288 123.521L93.3887 121.381L92.86 121.024L91.1707 122.279L90.1019 121.922L89.3894 120.311L85.2867 119.148L83.8617 117.456L80.3912 116.294L79.2304 115.224L78.426 115.051L76.909 116.029L73.7946 115.58L72.1858 114.602L71.5652 113.175L66.4857 112.462L65.1527 112.991L59.8893 110.413L57.4989 109.826H55.3614L53.8559 111.518L51.0059 111.437L47.2595 112.945L43.7889 112.059L43.6969 111.081L46.0069 107.064L47.6157 106.972L48.4202 105.902L48.7764 103.853L50.5577 100.193V98.674L50.1095 97.9605L45.2139 96.0846V92.9657L40.663 90.0194L40.9388 87.6141L38.9737 82.5272L38.5255 79.3969L38.8818 77.4404L38.0773 76.9915L39.1461 70.9264L38.3531 70.1208L32.4692 69.4072L31.5728 69.764L30.596 72.975L23.6432 73.8726L23.379 72.4456L21.4253 72.0888L21.2414 69.5799L19.1958 69.8561L17.5869 67.9802L12.5075 66.2884L10.5078 64.1247L14.7369 61.0519L16.4377 57.1274L17.4835 56.2067H19.1844L20.7473 54.9062L24.7925 54.7681L24.9304 52.4203L24.2753 49.7963L24.9304 48.3577L27.5391 48.7605L30.4121 50.061L33.4115 49.405L37.8475 49.5431L38.7668 48.4958L43.9842 47.5751L45.2943 46.5278L47.5123 46.0099H51.3047L53.1319 46.7925L54.8213 46.2746L56.0049 45.492L56.3957 42.4767L59.2687 41.1762L61.3488 38.8169L68.9221 33.9832L71.1515 31.624L74.0245 32.0152L75.8518 31.1061L78.9776 30.7148L79.1155 28.0908L81.3335 28.2289L82.5057 29.2762L84.8501 28.7468L88.9068 29.4028L90.9868 28.4936L93.7334 28.8849L96.7329 27.5729L102.353 28.3555L104.306 28.0908L109.535 25.743L112.925 26.1343L113.707 25.2136L115.407 24.6957L127.555 23.1305L130.68 23.6484L131.991 22.9924L133.691 17.5027L137.346 14.2342L140.483 13.4516L141.46 11.944L142.437 12.7611H148.148L152.688 13.4746L155.239 12.036L161.812 10.4593L164.168 10.9772L167.582 10.2637L169.753 10.8506L170.868 12.036L177.373 12.3007L184.326 13.5437L187.67 12.9567L192.864 16.0411L195.002 15.8454L198.15 17.1574L199.461 17.0999L201.391 19.5282L202.552 19.7929L206.356 18.2738L210.516 19.862L212.033 20.0576L214.986 19.3326L217.285 19.7929L220.02 18.7341L220.468 17.3531L225.145 17.5602L232.948 19.6318L234.856 18.6421L236.293 16.3403L237.143 16.1447L239.327 17.2955L246.486 15.1204L250.29 18.4809L252.313 18.7687L253.565 20.3454L255.599 20.2188L257.84 21.4387L259.748 24.1317L263.081 23.9706L264.069 23.3722L266.184 24.2583L268.413 24.1317L270.114 25.9731L273.458 25.2826L281.456 28.367L288.857 28.6317L291.616 30.0127L296.212 27.9066L302.51 26.0077L303.763 26.1343L303.797 27.5498L302.096 30.8414L302.97 35.4679L304.716 39.0241L308.704 44.134L311.738 45.5956L313.117 47.7708L316.358 48.0239L317.082 48.6224L317.22 50.0035L322.564 55.332L323.874 57.887L326.034 60.0621L328.333 61.2475L329.7 63.814L339.17 64.4009L342.319 61.9035L358.258 66.1733L363.843 65.9776L366.004 66.507L366.889 67.3587L367.808 71.8931L370.371 74.2639L371.451 76.4276L376.117 77.4174L377.461 79.8457L380.415 81.4224L380.633 83.3214L379.886 84.852L383.104 89.5131L383.564 91.2854L384.552 91.6882L385.965 90.1115L386.954 89.9734L389.574 90.6985L391.574 92.4018L392.493 99.307L391.378 104.302L393.998 107.985L393.642 109.113H391.171L388.988 108.249L387.735 108.652L386.793 109.803L382.644 110.977L372.669 109.803L369.118 110.263L363.993 109.999L359.534 111.115L357.166 112.623L356.787 116.835L355.247 118.285L353.202 124.35L351.719 125.777L350.604 128.735L348.697 130.438L347.777 133.2L343.847 137.148L338.193 138.529L330.574 137.919L327.861 138.46L326.379 137.067L327.965 136.561L327.494 135.87L328.551 135.399L328.275 134.662L329.172 133.638L327.747 131.612L323.621 131.163L320.208 132.878L317.588 136.158L315.749 136.423L314.243 135.698L313.048 136.296L308.256 141.153L308.072 142.016L306.877 142.476L306.486 143.455L304.981 144.444L301.614 144.122L298.35 144.836L295.396 147.736L290.144 149.577L289.283 151.545L284.49 152.132L281.997 153.513L279.905 155.884L279.963 156.437L278.986 156.678L277.664 158.312L275.768 158.98L274.193 160.948H272.872L272.941 161.408L270.999 162.398L267.953 162.329L267.689 162.916L264.402 163.25L262.77 164.17L261.713 168.118L260.139 168.832L258.3 172.054L254.163 172.457L251.209 171.594L250.164 172.192L248.785 174.954L246.486 176.531L241.889 178.568L237.361 179.155L236.637 180.939L236.568 184.288L238.143 186.129L238.476 190.664L236.764 191.711L236.304 194.542L232.833 194.933L228.627 199.479L226.915 200.4L224.145 208.755Z" fill="white"/>
<path d="M224.145 208.755L222.019 208.249L219.79 206.465L218.813 204.946L218.273 202.449L219.342 199.502L217.917 199.41L217.388 198.697L212.401 199.41L211.596 200.389L207.493 201.908L203.667 204.497L200.817 203.968L194.576 201.378L191.726 201.735L186.107 200.929L185.13 201.551L179.786 202.184L176.752 199.41V195.578L178.177 193.886L175.511 192.988L173.994 191.734L162.41 194.059L153.86 198.167L153.056 197.811L152.872 196.027L155.285 194.6L157.239 192.54L158.043 190.94L158.135 187.994L159.732 184.506L158.583 182.458L157.158 181.836L155.193 182.366L153.768 182.009L150.734 180.409L148.24 171.041L146.999 169.073L145.574 168.624L150.206 168.809L150.826 167.554L153.056 161.132L151.447 156.229H150.734L149.229 159.084L146.723 160.96L141.299 162.03L130.014 160.603L125.647 163.537L123.509 163.008L121.992 161.316L120.832 160.96L112.73 162.295L105.777 162.202L103.111 158.635L102.307 158.462L100.433 160.246L98.8244 159.97L98.9164 157.921L100.79 152.339L100.433 151.361L97.6752 149.761L97.3994 148.772L98.2039 146.907L100.249 145.561L100.973 144.318L100.698 141.636L99.8932 140.117L98.652 138.955L96.6065 138.241L94.8252 139.323L93.8368 140.831L87.8724 141.464L81.276 140.474L79.6672 141.107L79.3109 139.323L79.851 137.528L79.1385 134.236L80.7474 130.841L81.6323 130.3L83.6779 130.841L89.2975 130.657L90.5386 129.943L91.1707 128.7L91.2511 126.203L93.4806 124.776L93.9288 123.521L93.3887 121.381L92.86 121.024L91.1707 122.279L90.1019 121.922L89.3894 120.311L85.2867 119.148L83.8617 117.456L80.3912 116.294L79.2304 115.224L78.426 115.051L76.909 116.029L73.7946 115.58L72.1858 114.602L71.5652 113.175L66.4857 112.462L65.1527 112.991L59.8893 110.413L57.4989 109.826H55.3614L53.8559 111.518L51.0059 111.437L47.2595 112.945L43.7889 112.059L43.6969 111.081L46.0069 107.064L47.6157 106.972L48.4202 105.902L48.7764 103.853L50.5577 100.193V98.674L50.1095 97.9605L45.2139 96.0846V92.9657L40.663 90.0194L40.9388 87.6141L38.9737 82.5272L38.5255 79.3969L38.8818 77.4404L38.0773 76.9915L39.1461 70.9264L38.3531 70.1208L32.4692 69.4072L31.5728 69.764L30.596 72.975L23.6432 73.8726L23.379 72.4456L21.4253 72.0888L21.2414 69.5799L19.1958 69.8561L17.5869 67.9802L12.5075 66.2884L10.5078 64.1247L14.7369 61.0519L16.4377 57.1274L17.4835 56.2067H19.1844L20.7473 54.9062L24.7925 54.7681L24.9304 52.4203L24.2753 49.7963L24.9304 48.3577L27.5391 48.7605L30.4121 50.061L33.4115 49.405L37.8475 49.5431L38.7668 48.4958L43.9842 47.5751L45.2943 46.5278L47.5123 46.0099H51.3047L53.1319 46.7925L54.8213 46.2746L56.0049 45.492L56.3957 42.4767L59.2687 41.1762L61.3488 38.8169L68.9221 33.9832L71.1515 31.624L74.0245 32.0152L75.8518 31.1061L78.9776 30.7148L79.1155 28.0908L81.3335 28.2289L82.5057 29.2762L84.8501 28.7468L88.9068 29.4028L90.9868 28.4936L93.7334 28.8849L96.7329 27.5729L102.353 28.3555L104.306 28.0908L109.535 25.743L112.925 26.1343L113.707 25.2136L115.407 24.6957L127.555 23.1305L130.68 23.6484L131.991 22.9924L133.691 17.5027L137.346 14.2342L140.483 13.4516L141.46 11.944L142.437 12.7611H148.148L152.688 13.4746L155.239 12.036L161.812 10.4593L164.168 10.9772L167.582 10.2637L169.753 10.8506L170.868 12.036L177.373 12.3007L184.326 13.5437L187.67 12.9567L192.864 16.0411L195.002 15.8454L198.15 17.1574L199.461 17.0999L201.391 19.5282L202.552 19.7929L206.356 18.2738L210.516 19.862L212.033 20.0576L214.986 19.3326L217.285 19.7929L220.02 18.7341L220.468 17.3531L225.145 17.5602L232.948 19.6318L234.856 18.6421L236.293 16.3403L237.143 16.1447L239.327 17.2955L246.486 15.1204L250.29 18.4809L252.313 18.7687L253.565 20.3454L255.599 20.2188L257.84 21.4387L259.748 24.1317L263.081 23.9706L264.069 23.3722L266.184 24.2583L268.413 24.1317L270.114 25.9731L273.458 25.2826L281.456 28.367L288.857 28.6317L291.616 30.0127L296.212 27.9066L302.51 26.0077L303.763 26.1343L303.797 27.5498L302.096 30.8414L302.97 35.4679L304.716 39.0241L308.704 44.134L311.738 45.5956L313.117 47.7708L316.358 48.0239L317.082 48.6224L317.22 50.0035L322.564 55.332L323.874 57.887L326.034 60.0621L328.333 61.2475L329.7 63.814L339.17 64.4009L342.319 61.9035L358.258 66.1733L363.843 65.9776L366.004 66.507L366.889 67.3587L367.808 71.8931L370.371 74.2639L371.451 76.4276L376.117 77.4174L377.461 79.8457L380.415 81.4224L380.633 83.3214L379.886 84.852L383.104 89.5131L383.564 91.2854L384.552 91.6882L385.965 90.1115L386.954 89.9734L389.574 90.6985L391.574 92.4018L392.493 99.307L391.378 104.302L393.998 107.985L393.642 109.113H391.171L388.988 108.249L387.735 108.652L386.793 109.803L382.644 110.977L372.669 109.803L369.118 110.263L363.993 109.999L359.534 111.115L357.166 112.623L356.787 116.835L355.247 118.285L353.202 124.35L351.719 125.777L350.604 128.735L348.697 130.438L347.777 133.2L343.847 137.148L338.193 138.529L330.574 137.919L327.861 138.46L326.379 137.067L327.965 136.561L327.494 135.87L328.551 135.399L328.275 134.662L329.172 133.638L327.747 131.612L323.621 131.163L320.208 132.878L317.588 136.158L315.749 136.423L314.243 135.698L313.048 136.296L308.256 141.153L308.072 142.016L306.877 142.476L306.486 143.455L304.981 144.444L301.614 144.122L298.35 144.836L295.396 147.736L290.144 149.577L289.283 151.545L284.49 152.132L281.997 153.513L279.905 155.884L279.963 156.437L278.986 156.678L277.664 158.312L275.768 158.98L274.193 160.948H272.872L272.941 161.408L270.999 162.398L267.953 162.329L267.689 162.916L264.402 163.25L262.77 164.17L261.713 168.118L260.139 168.832L258.3 172.054L254.163 172.457L251.209 171.594L250.164 172.192L248.785 174.954L246.486 176.531L241.889 178.568L237.361 179.155L236.637 180.939L236.568 184.288L238.143 186.129L238.476 190.664L236.764 191.711L236.304 194.542L232.833 194.933L228.627 199.479L226.915 200.4L224.145 208.755Z" stroke="white" stroke-width="0.476939"/>
</g>
<defs>
<filter id="filter0_d_441_11567" x="0.611729" y="0.479771" width="403.189" height="218.097" filterUnits="userSpaceOnUse" color-interpolation-filters="sRGB">
<feFlood flood-opacity="0" result="BackgroundImageFix"/>
<feColorMatrix in="SourceAlpha" type="matrix" values="0 0 0 0 0 0 0 0 0 0 0 0 0 0 0 0 0 0 127 0" result="hardAlpha"/>
<feOffset/>
<feGaussianBlur stdDeviation="4.76939"/>
<feComposite in2="hardAlpha" operator="out"/>
<feColorMatrix type="matrix" values="0 0 0 0 0 0 0 0 0 0 0 0 0 0 0 0 0 0 0.25 0"/>
<feBlend mode="normal" in2="BackgroundImageFix" result="effect1_dropShadow_441_11567"/>
<feBlend mode="normal" in="SourceGraphic" in2="effect1_dropShadow_441_11567" result="shape"/>
</filter>
</defs>
</svg>
